<svg class="svgOrigin" xmlns="http://www.w3.org/2000/svg" width="400" height="400" x="0px" y="0px" viewBox="0 0 400 400" enable-background="new 0 0 400 400">
<g>
	<circle fill="#FF0000" cx="200" cy="200" r="197"/>
	
		<ellipse transform="matrix(0.707107 -0.707107 0.707107 0.707107 -82.842842 199.999954)" fill="none" stroke="#FFFFFF" stroke-width="5.62857" cx="199.999878" cy="200.000122" rx="188.557281" ry="188.557159"/>
	<path fill="#FFFFFF" d="M329.413086,200c0-71.472687-57.945282-129.413086-129.413086-129.413086
		c-71.473099,0-129.4189,57.940407-129.4189,129.413086c0,71.478516,57.945801,129.413086,129.4189,129.413086
		C271.467804,329.413086,329.413086,271.478516,329.413086,200z"/>
	<path fill="#0334A6" d="M310.295898,267.708008C322.415985,248.007797,329.418884,224.823212,329.418884,200
		c0-24.828094-7.002899-48.013199-19.122986-67.713394L278.684601,200L310.295898,267.708008z"/>
	<path fill="#0334A6" d="M89.715302,132.292511C77.5952,151.992203,70.5923,175.1772,70.5923,200
		c0,24.82811,7.002899,48.013702,19.123001,67.712891L121.326195,200L89.715302,132.292511z"/>
	<path fill="#0334A6" d="M212.620102,284.819305c0,1.549805-1.263702,2.813507-2.814407,2.813507h-7.579102
		c-1.550293,0-2.815002-1.263702-2.815002-2.813507v-4.276306c0-1.550781,1.264709-2.814484,2.815002-2.814484h7.579102
		c1.550705,0,2.814407,1.263702,2.814407,2.814484V284.819305z"/>
	<path fill="#0334A6" d="M282.444305,133.4189c0-0.010696,0-17.380295,0-23.17379
		c0.203186-4.1772-2.52832-7.837898-5.386719-8.915504c-2.731384-1.203606-5.188507-1.0718-6.419891-1.093796
		c-2.21579,0.038597-4.74411,0.637695-7.525391,2.094299c-0.197296,0.1045-0.406219,0.280296-0.615204,0.4067
		c-0.692413-0.621101-1.429718-1.121605-2.19342-1.407204c-2.743195-1.203606-5.20018-1.0718-6.430679-1.093796
		c-2.16011,0.038597-4.623001,0.621101-7.322205,2.000999c-1.258789-1.632813-3.220703-3.028809-5.864304-3.001404
		c-6.337906,0.324203-8.240204,5.288002-8.470703,5.551704c-1.011688,2.110802-0.104492,4.627892,2.001007,5.628395
		c2.110291,1.000496,4.622101,0.104492,5.623001-2.000504l0.016602-0.021896c0.071289-0.115799,0.153397-0.2202,0.241287-0.313499
		c0.258713,1.044395,0.401306,2.836395,0.384705,4.309105c0,0.868599-0.016602,1.627396-0.016602,2.253899
		c-0.010696,2.600098-0.010696,18.765594-0.010696,18.776291c0,2.325211,1.890594,4.227097,4.227493,4.227097
		c2.336014,0,4.226608-1.901886,4.226608-4.227097c-0.010803-0.010696,0-16.187492-0.010803-18.776291
		c0-0.472702,0.010803-1.292,0.010803-2.253899c0-0.291-0.033188-0.6651-0.033188-0.978104
		c0-0.060501,0.033188-0.1157,0.033188-0.176201c-0.033188-0.192406,0.121094-0.686996,1.505798-1.494698
		c1.204102-0.7202,3.265701-1.110298,3.458008-1.072197c1.159195-0.022003,2.495193,0.110298,2.951187,0.351997
		c0.334991,0.368202,0.219696-0.390099,0.412109,1.225601c0,5.793495,0,23.163094,0,23.17379
		c0,2.325211,1.890717,4.227097,4.2276,4.227097c2.325195,0,4.226501-1.901886,4.226501-4.227097h-0.010712
		c0-0.010696,0-15.637695,0-22.184494c-0.039093-0.192406,0.121094-0.686996,1.505798-1.494698
		c1.204102-0.7202,3.259796-1.110298,3.452209-1.072197c1.148407-0.022003,2.495087,0.110298,2.951202,0.351997
		c0.34079,0.368202,0.208984-0.390099,0.412109,1.225601c0,5.793495,0,23.163094,0,23.17379
		c0,2.325211,1.891571,4.227097,4.227478,4.227097c2.325195,0,4.226593-1.901886,4.226593-4.227097H282.444305z"/>
	<path fill="none" stroke="#0334A6" stroke-width="19.700001" stroke-linejoin="round" d="M144.445297,167.932602v-9.514603
		c0-13.912094,11.279297-25.191391,25.190903-25.191391c13.912094,0,25.191391,10.6362,25.191391,25.191391
		c0,14.555099-54.307098,106.349609-54.307098,106.349609h59.941406"/>
	<path fill="none" stroke="#0334A6" stroke-width="16.8857" stroke-linejoin="round" d="M221.304688,202.287109v-6.134811
		c0-8.9814,8.542007-16.253387,19.073212-16.253387c10.537094,0,19.079102,6.859894,19.079102,16.253387
		c0,9.388702-41.1259,68.615311-41.1259,68.615311h45.391586"/>
</g>
</svg>
