<svg class="svgOrigin" xmlns="http://www.w3.org/2000/svg" width="400" height="400" x="0px" y="0px" viewBox="0 0 400 400" enable-background="new 0 0 400 400">
<g>
	<circle fill="#0334A6" cx="200" cy="200" r="197.5"/>
	
		<ellipse transform="matrix(0.707107 -0.707107 0.707107 0.707107 -82.842766 200.000122)" fill="none" stroke="#FFFFFF" stroke-width="5.64286" cx="200.000122" cy="200.000122" rx="189.035904" ry="189.035782"/>
	<path fill="#FFFFFF" d="M347.149384,156.138199c0,0-80.344696-26.222198-86.571289-27.899887
		c-7.5224-2.022507-13.584,8.084-4.380798,15.9888c3.344696,2.873993,9.076111,8.301697,15.004791,14.043884
		c2.877014,3.716812,0.600616,4.821808-4.650299,6.06691c-0.022491,0.005798-0.033203,0.022507-0.055695,0.027802
		c-8.276398,1.821289-17.854507,4.639694-27.734406,9.056702C225.265594,179.514206,211.048798,188.849106,200,203.361298
		c-11.048798-14.512192-25.266098-23.847092-38.758804-29.938889c-9.880402-4.417007-19.457993-7.235413-27.734894-9.056702
		c-0.021912-0.005295-0.033203-0.022003-0.055099-0.027802c-5.251511-1.245102-7.527405-2.350098-4.650909-6.06691
		c5.929199-5.742188,11.66011-11.169891,15.005402-14.043884c9.202606-7.9048,3.141098-18.011307-4.380905-15.9888
		c-6.22699,1.677689-86.571793,27.899887-86.571793,27.899887s-6.767101,2.193314-7.097599,3.526794
		c-0.325203,1.333511,4.6567,6.417007,4.6567,6.417007s59.007294,60.495102,63.751999,64.871109
		c5.725494,5.279297,15.264091,1.240295,10.778793-10.03511c-1.537598-3.868195-4.094299-9.985397-6.778297-16.343796
		c-1.746597-4.117203,0.551201-5.698196,5.279198-4.822205c2.639702,0.529205,5.428307,1.146408,8.359901,1.961899
		c14.140106,3.857407,29.779297,11.407211,39.097702,23.949203c6.229492,8.3974,10.632797,19.110306,10.759201,35.752884
		c0,0.06543-0.00531,74.111328-0.00531,78.371124c0,0.287079-0.002991,0.429688-0.002991,0.429688h0.002991h36.689407
		c0,0,0-78.735382,0-78.800812c0.121094-16.636688,4.524399-27.355484,10.756897-35.752884
		c9.318298-12.541992,24.957001-20.091797,39.097595-23.949203c2.931702-0.815491,5.719696-1.432693,8.359406-1.961899
		c4.728485-0.875992,7.026398,0.705002,5.279297,4.822205c-2.683594,6.358398-5.240204,12.475601-6.77829,16.343796
		c-4.485413,11.275406,5.05368,15.314407,10.779297,10.03511c4.74411-4.376007,63.751892-64.871109,63.751892-64.871109
		s4.981506-5.083496,4.656311-6.417007C353.916992,158.331512,347.149384,156.138199,347.149384,156.138199z"/>
</g>
</svg>
