<svg class="svgOrigin" xmlns="http://www.w3.org/2000/svg" width="400" height="400" x="0px" y="0px" viewBox="0 0 400 400" enable-background="new 0 0 400 400">
<g>
	<path fill="#0334A6" d="M398.125,200c0,109.421906-88.703094,198.125-198.119598,198.125
		C90.578102,398.125,1.875,309.421906,1.875,200S90.578102,1.875,200.005402,1.875C309.421906,1.875,398.125,90.57811,398.125,200z"
		/>
	<path fill="none" stroke="#FFFFFF" stroke-width="5.66071" d="M389.633789,200
		c0,104.728485-84.899384,189.633789-189.628387,189.633789C95.2715,389.633789,10.3662,304.728485,10.3662,200
		C10.3662,95.26561,95.2715,10.36621,200.005402,10.36621C304.734406,10.36621,389.633789,95.26561,389.633789,200z"/>
	<path fill="#FFFFFF" d="M359.970703,226.872101c0,0-59.343689-36.927795-64.014618-39.503403
		c-5.638702-3.112396-16.13089,2.91301-10.304688,11.083405c1.929688,2.697296,9.458984,11.979507,9.458984,11.984406
		c3.172821,3.167999,0.856415,6.512695-3.593781,6.512695c-6.295898,0-13.49411,0.004898-21.171906,0.010803
		c-19.746109,0.055603-39.979507,8.767502-55.722595,24.246094V109.149406c0-8.565895,4.919907-9.9673,8.911087-6.757797
		c0.010712,0.002388,0.010712,0.002388,0.016602,0.007797c3.665009,2.977104,6.959,5.578102,9.110397,7.112305
		c8.169907,5.829094,14.195313-4.663101,11.083008-10.30471c-2.576187-4.670891-39.503006-64.014587-39.503006-64.014587
		s-3.101486-5.002901-4.234787-5.002901c-1.138702,0-4.234406,5.002901-4.234406,5.002901s-36.9272,59.3437-39.503403,64.014587
		c-3.112305,5.641609,2.913605,16.133804,11.07811,10.30471c2.039993-1.457001,5.107895-3.870102,8.546387-6.653305
		c0.005798-0.002899,0.0112-0.002899,0.0112-0.005409c3.996613-3.209,9.485901-1.807587,9.485901,6.757813v57.270493
		c0,6.263199-3.25589,8.162201-7.949295,3.480011L147.3452,140.269501l-21.034203,21.031311l49.420906,49.412094
		c3.825195,3.836899,1.122101,9.265594-5.798813,4.489197l-0.044388,0.066498
		c-12.537613-7.789093-26.484909-12.106491-40.2276-12.150391c-8.341805,0-16.318802,0-23.189903,0
		c-3.560104,0-6.959999-2.388702-4.439003-4.90921c0.005402-0.002899,7.318901-8.469299,10.973198-13.587891
		c5.832001-8.17041-4.660194-14.193405-10.298897-11.084C98.035202,176.113312,38.686001,213.041,38.686001,213.041
		s-5.002399,3.100601-5.002399,4.234406c0,1.132797,5.008297,4.234406,5.008297,4.234406s59.337902,36.926682,64.009293,39.502884
		c5.644005,3.112305,16.1362-2.913086,10.309502-11.082993c-1.990196-2.786102-9.839798-12.449203-9.8452-12.460999
		c-2.520996-2.514603-0.254402-6.041901,3.305702-6.041901c6.871101,0,14.8535,0,23.189903,0
		c11.80809-0.071304,26.136795,5.827103,37.1651,17.330002c9.541489,9.956085,16.755295,23.782288,18.562988,41.626984v68.122101
		h29.23291v-54.302795c1.801697-17.832977,9.015594-31.664001,18.551697-41.614197
		c11.02829-11.509796,25.357483-17.40239,37.170898-17.335999c7.677795,0,14.876007,0,21.171906,0
		c4.450195,0,6.766602,3.343811,3.593781,6.511703c-0.033295,0.033295-7.541077,9.309616-9.458984,11.996109
		c-5.826202,8.169983,4.665985,14.195404,10.304688,11.082977c4.670929-2.575073,64.014618-39.502884,64.014618-39.502884
		s5.002899-3.101501,5.002899-4.234406C364.973602,229.972702,359.970703,226.872101,359.970703,226.872101z"/>
</g>
</svg>
