<svg class="svgOrigin" xmlns="http://www.w3.org/2000/svg" width="400" height="400" x="0px" y="0px" viewBox="0 0 400 400" enable-background="new 0 0 400 400">
<g>
	<circle fill="#0334A6" cx="200" cy="200" r="197.5"/>
	
		<ellipse transform="matrix(0.707107 -0.707107 0.707107 0.707107 -82.842766 200.000122)" fill="none" stroke="#FFFFFF" stroke-width="5.64286" cx="200.000122" cy="200.000122" rx="189.035904" ry="189.035782"/>
	<path fill="#FFFFFF" d="M272.100586,163.404312c-4.243195-8.514206-65.113297-116.648407-65.113297-116.648407
		s-5.113297-9.114799-6.98439-9.114799c-1.871109,0-6.979507,9.114799-6.979507,9.114799S132.150894,154.890106,127.9077,163.404312
		c-5.127899,10.276886,4.802307,29.3936,18.264694,18.774399c4.833008-3.813507,21.811005-19.099609,21.813904-19.105499
		c6.168991-5.587402,8.527405-2.611801,8.527405,4.838394v196.254379h46.972595V167.911606
		c0-7.450195,2.358398-10.425797,8.530304-4.838394c0.010696,0.00589,16.983398,15.291992,21.822296,19.105499
		C267.295898,192.797913,277.225586,173.681198,272.100586,163.404312z"/>
</g>
</svg>
