<svg class="svgOrigin" xmlns="http://www.w3.org/2000/svg" width="400" height="400" x="0px" y="0px" viewBox="0 0 400 400" enable-background="new 0 0 400 400">
<g>
	<circle fill="#0334A6" cx="200.00087" cy="200" r="196.874695"/>
	<circle fill="none" stroke="#FFFFFF" stroke-width="5.625" cx="200.00087" cy="200" r="188.43718"/>
	<path fill="#FFFFFF" d="M233.111298,254.294907c-4.943298-0.593704-12.952103-1.154297-21.939407-1.65921
		c-7.623993-0.472595-20.019592-6.614197-14.045883-13.095703l132.02829-143.217682l-31.707001-29.226601L167.649399,207.8936
		c-11.049301,11.986298-18.550308-21.909195-18.550308-21.909195c-0.659195-3.960999-1.2827-7.391098-1.832001-9.953598
		c-3.751495-17.446304-24.24369-10.876495-26.91069,0.263596c-2.213806,9.2285-24.777298,131.470184-24.777298,131.470184
		S93.6567,318.058594,95.1455,319.410187c1.491203,1.362305,11.557594-1.499084,11.557594-1.499084
		s119.640701-33.739197,128.617203-36.798798C246.174789,277.420898,250.832993,256.415009,233.111298,254.294907z"/>
</g>
</svg>
