<svg class="svgOrigin" xmlns="http://www.w3.org/2000/svg" width="400" height="400" x="0px" y="0px" viewBox="0 0 400 400" enable-background="new 0 0 400 400">
<g>
	<circle fill="#FF0000" cx="200" cy="200" r="197"/>
	
		<ellipse transform="matrix(0.707107 -0.707107 0.707107 0.707107 -82.842842 199.999954)" fill="none" stroke="#FFFFFF" stroke-width="5.62857" cx="199.999878" cy="200.000122" rx="188.557281" ry="188.557159"/>
	<path fill="#FFFFFF" d="M236.8936,254.438507c2.407196,0,4.870087-0.917999,6.760696-2.731506
		c1.220703-1.192398,2.022491-2.616196,2.495102-4.111298c1.116196,4.215805,4.925797,7.343796,9.487289,7.343796
		c4.21582,0,7.789093-2.655289,9.190399-6.387695c0.901398,0.263596,1.819397,0.440399,2.743195,0.434494
		c0.016602,0,0.033203,0,0.044006,0c0.390594,0,0.775299-0.071304,1.165009-0.115189l32.117188,32.116196
		C318.72168,258.814514,329.413086,230.660202,329.413086,200c0-71.472687-57.940399-129.413086-129.413086-129.413086
		c-30.660202,0-58.814499,10.690903-80.987801,28.516602l54.185997,54.186104
		c-0.516602,0.34079-1.049805,0.609787-1.544403,1.022385c-4.177704,3.600113-5.210892,8.365707-5.210892,11.811996
		c0.0112,0-0.016602,0.17041,0.0112,0.54451c0,0.752899,0,2.41301-0.005905,4.705002h-5.3535
		c0.9673-1.582993,1.874496-3.6884,2.017105-6.227509c0.021988-0.280792,0.049789-0.571793,0.033203-0.868683
		c-0.082504-3.08931-1.335907-5.117111-2.721207-6.799316c-1.352005-1.456497-2.819305-2.830994-5.436005-3.452087
		c-1.044403-0.291-3.309097-0.802307-5.991196-1.384796c0.406693-1.121613,0.599106-2.275909,0.599106-3.391602
		c0-3.24321-1.583008-6.381805-4.474106-8.2724c-1.6436-1.055206-3.512695-1.594299-5.364807-1.594299
		c-2.072189-0.005402-4.150391,0.6651-5.865189,1.935089h-0.022003l-0.049301,0.054703
		c-0.769501,0.583008-1.461899,1.286606-2.044907,2.105392c-0.181198,0.214417-0.13179,0.181213-0.142593,0.197815
		c0,0.005402,0,0.005402-0.005798,0.011185c-0.005402,0.005417-0.016205,0.022003-0.032806,0.038605
		c-0.121094,0.175812-1.214798,1.863312-3.221191,4.534698l-29.258698-29.258789
		C81.283203,141.174805,70.597702,169.328613,70.597702,200c0,71.467804,57.934998,129.402313,129.402298,129.402313
		c30.670898,0,58.825195-10.685516,80.998993-28.505798l-46.886703-46.886719
		c0.901398,0.258804,1.813507,0.434509,2.731506,0.428711C236.860397,254.438507,236.876999,254.438507,236.8936,254.438507z"/>
	<g>
		<path fill="#0334A6" d="M165.178696,177.007309v-0.010696h-15.8965c2.193405-2.720703,4.243698-5.309616,4.886703-5.925308
			c1.324799-1.6436,3.000992-2.759308,3.341797-6.442398c0.269592-2.170914-2.148895-4.941406-4.034607-5.177704
			c-1.511292-0.423401-8.365692-1.890701-13.637192-3.012207c2.188004-2.940491,3.413498-4.836884,3.468704-4.902893
			c1.264191-1.962402,0.703598-4.567795-1.248001-5.832001c-1.956604-1.269501-4.573303-0.714401-5.831604,1.242203h-0.0112
			c-0.010696,0.0112-2.852493,4.402802-7.766602,10.295395c-4.908699,5.876007-11.839798,13.131302-19.644997,18.507294
			c-1.923904,1.313507-2.4077,3.951706-1.066399,5.875519c0.808098,1.182098,2.1269,1.819794,3.473595,1.819794
			c0.830101,0,1.665504-0.242203,2.402306-0.753403c8.200699-5.683594,15.181702-12.839798,20.332092-18.869598
			c3.100098,0.653809,8.871597,1.879898,12.917007,2.764603c-2.550308,2.995605-6.772003,8.464905-8.585999,10.410706h-12.504906
			c-2.204102,0-4.040001,1.698196-4.215797,3.896988c0,0.0112-0.456001,6.150803-2.649399,16.0009
			c-2.1987,9.855499-6.1064,23.261703-12.917,37.294998c-1.0224,2.099609-0.153801,4.627899,1.951195,5.644501
			c0.588402,0.292007,1.214806,0.428711,1.835899,0.428711c1.566406,0,3.078209-0.878906,3.809105-2.374008
			c11.120102-22.959991,14.830109-44.011703,15.951691-52.449203h35.640106c2.325195,0,4.215805-1.89119,4.215805-4.215897
			C169.394501,178.887207,167.503891,177.007309,165.178696,177.007309z"/>
		<path fill="#0334A6" d="M166.321793,226.757797c-2.126999-0.951187-4.627991,0-5.567902,2.137711
			c-0.0112,0-0.143097,0.325195-0.659698,1.126999c-1.654297,2.473602-5.529694,7.217697-13.186493,7.217697
			c-5.974609,0.027405-8.360306-1.170898-8.794403-1.616211c-0.362793-0.390594-0.352097-0.34079-0.417999-1.588791
			c0-2.8526,0-27.9776,0-30.549805c-0.005402-0.225586,0-0.440491,0.005402-0.632889c3.892105,0,11.669403,0,13.774902,0
			c0.230896-0.004807,0.439392,0.016602,0.626495,0.049789c0,2.879913,0,8.998108,0,12.295914
			c-0.274994,0.351593-1.286194,1.335999-2.407303,1.951187c-1.302704,0.813507-2.446304,1.281311-2.446304,1.292007
			c-2.148895,0.907196-3.154694,3.385696-2.242599,5.545898c0.907211,2.149399,3.3862,3.144501,5.54631,2.243195l-0.0112-0.016602
			c0.148499-0.055695,2.171402-0.901398,4.424789-2.418991c2.077713-1.583008,5.238312-3.473602,5.579102-8.310501
			c0-3.710999,0-11.708008,0-13.703201c0.044006-2.7211-1.764099-4.980392-3.512192-5.942307
			c-1.775406-1.055191-3.655304-1.417999-5.557098-1.428696c-2.583511,0-13.714401,0-15.709503,0
			c-2.814407-0.20369-5.479996,2.440399-5.859406,4.248505c-0.632294,1.852493-0.621094,3.369598-0.64299,4.826691
			c-0.011307,2.572205-0.011307,27.686508,0,30.549805c-0.060608,1.610306,0.236298,5.381805,3.358398,7.986298
			c3.072693,2.545898,7.409195,3.627899,14.285599,3.661102c15.604996-0.153305,21.381897-12.939392,21.54689-13.351501
			C169.405792,230.198212,168.45459,227.709,166.321793,226.757797z"/>
		<path fill="#0334A6" d="M239.873001,241.675797c-0.011703-0.010803-5.530212-5.749985-11.042908-11.829086
			c-2.753906-3.044907-5.507797-6.161209-7.503006-8.629898c-0.967697-1.186508-1.753891-2.220703-2.247986-2.940414
			c0.175797,0,0.406296,0,0.577194,0c3.770493-0.093796,6.804596,0.175705,10.108292-2.137695
			c3.270599-2.693405,3.550812-6.365295,3.588913-10.361404c0.219696-5.315399-2.693314-9.9384-6.612305-11.510193
			c-2.693298-1.181702-5.386703-1.451202-7.954102-1.528305c0-1.698288,0-3.209991,0-4.468796
			c2.809601-0.697693,5.085007-1.907196,6.766602-3.1548c0.775406,0.692398,1.693405,1.181702,2.720703,1.181702
			c0.698288,0,1.40239-0.170395,2.055695-0.533203c2.034195-1.137695,2.770508-3.70459,1.632797-5.738297
			c-0.0215-0.033203-4.314499-7.772507-12.900391-22.360413c-0.752899-1.258789-2.07811-2.044891-3.540009-2.083481
			c-1.445404-0.0327-2.8311,0.681686-3.627991,1.896484c-7.43161,11.212906-12.988205,14.653809-15.995102,15.726105
			c0.109894-0.566391,0.291489-1.094193,0.330093-1.6987c-0.033203-2.522995,0.022003-5.798889-1.313995-9.1353
			c-1.165009-3.4189-5.205109-6.722595-10.036606-6.497101c-3.908203,0.010803-7.096191,0.6539-9.608398,2.759308
			c-2.53949,2.160202-3.231903,5.320801-3.182602,7.739304c-0.010788,3.70459-0.010788,77.085388-0.010788,77.085388
			c0,2.335999,1.890686,4.232498,4.226593,4.232498c2.336395,0,4.232407-1.8965,4.232407-4.232498h-0.016098
			c0,0,0-6.007797,0-14.670898c1.681686-0.423798,3.951691-1.126892,6.320786-2.258804
			c4.073303-1.896393,9.1465-5.777298,10.053711-12.263596c0.945297,1.209,2.072296,2.248001,3.534195,2.743103
			c2.946304,1.115295,5.947311,1.209,9.669006,1.236404c-1.407303,2.132797-6.107513,7.7724-10.383301,12.44429
			c-4.947311,5.513702-9.6138,10.427704-9.625,10.438507c-1.610397,1.681595-1.539108,4.3535,0.153793,5.957993
			c0.813904,0.781204,1.863693,1.166,2.908203,1.166c1.115692,0,2.2314-0.440399,3.061493-1.314499
			c0.010712-0.010696,5.397507-5.677704,10.790009-11.729401c2.71489-3.034195,5.419998-6.150391,7.513702-8.783203
			c0.033188-0.039093,0.049789-0.066498,0.081985-0.110397c6.536209,8.113312,19.106506,21.085007,19.194412,21.2061
			c0.825195,0.868103,1.940399,1.302704,3.050797,1.302704c1.049805,0,2.105392-0.390594,2.9189-1.170898
			c1.670898-1.621109,1.7314-4.292999,0.121094-5.974609H239.873001z M223.2285,201.946304
			c1.055695,0.703094,1.457001,0.516602,1.682587,3.830994c0,1.725601-0.143494,2.902405-0.296799,3.435608
			c-0.049789,0.192398-0.082993,0.257797-0.099701,0.291c-0.445297,0.148392-2.181595,0.384796-4.858292,0.340805
			c-0.253006,0-0.604507,0-0.8741,0c0-2.671814,0-5.667007,0-8.652313
			C220.760696,201.292007,222.398392,201.522507,223.2285,201.946304z M215.082993,167.575211
			c2.489304,4.265594,4.468796,7.695297,5.980499,10.334c-1.457092,1.192398-3.771484,2.550293-6.502991,2.511688
			c-2.055603,0.049301-4.759705-1.269485-6.837799-2.8638c-0.466812-0.346191-0.8741-0.686996-1.248108-1.016586
			C209.140594,174.3965,212.015594,171.549301,215.082993,167.575211z M180.520004,166.371613
			c0.049286-1.302811,0.214386-1.280807,0.247086-1.336014c0.060501-0.103989,1.132309-0.730896,4.034698-0.730896
			c0.027313,0,0.049301,0,0.077103,0c2.011703,0.225601,1.527802,0.203598,2.2202,1.280701
			c0.517105,1.154297,0.7202,3.594803,0.698303,5.919998c0.033203,0.027298-0.214401,1.039001-1.039093,2.3965
			c-1.225601,2.38031-3.935501,5.513092-6.238297,7.805099C180.520004,173.412613,180.520004,167.372101,180.520004,166.371613z
			 M183.180191,218.914108c-0.890594,0.428696-1.802795,0.786102-2.660187,1.077103c0-5.683609,0-11.888702,0-18.001007
			c0.835495,0.489304,1.753387,1.077194,2.671387,1.769608c3.132797,2.335892,5.518616,5.364182,5.446808,8.575195
			C188.688004,215.214798,186.571793,217.210007,183.180191,218.914108z M199.686493,195.921402
			c-2.979004,2.028305-4.408203,5.211411-4.858902,8.453598c-3.111298-5.776398-8.673798-9.096695-12.015594-10.707001v-2.726593
			c2.3526-1.725601,4.693893-4.171906,7.123505-6.991699c0.533295-0.686996,1.044495-1.357407,1.555695-2.028305
			c0.434097,0.099106,1.071808,0.2202,2.061005,0.209c1.412598,0.00531,3.265198-0.302292,5.408691-1.104996
			c1.759308,1.857895,5.706116,5.606903,11.378006,7.151398c0,1.302704,0,2.885696,0,4.672302
			C205.985397,193.151398,202.555695,193.975601,199.686493,195.921402z M203.3311,209.036102
			c-0.033203-0.048798-0.258804-0.587891-0.258804-1.835892c0.110306-3.044907,0.533203-3.6436,1.462906-4.364304
			c0.741196-0.587906,2.654297-1.219696,5.803696-1.516602c0,2.940506,0.005798,5.870193,0.005798,8.492203
			c-3.584-0.033203-6.051697-0.269501-6.739197-0.626907C203.3311,209.036102,203.391602,209.069305,203.3311,209.036102z"/>
		<path fill="#0334A6" d="M300.170898,179.019501c-2.122101-2.166-4.831116-2.567398-6.628906-2.539505
			c-1.742188-0.011292-11.515594-0.016586-17.952209-0.016586c2.671906-8.080109,4.265717-15.203598,4.337006-15.34671
			c0.5224-2.269989-0.890686-4.539993-3.166107-5.0625c-2.270477-0.527298-4.529297,0.8853-5.05658,3.166v-0.010696
			c0,0.010696-1.237305,5.342697-3.259796,11.839798c-0.792023,2.577698-1.731415,5.342804-2.737305,7.992203
			c-0.209015-0.071793-0.384705-0.192398-0.604492-0.231003l-5.23822-0.873993v-21.799805
			c0-2.341293-1.891602-4.22699-4.221695-4.22699c-2.341797,0-4.221695,1.885696-4.221695,4.22699v20.397995l-3.996109-0.670395
			c0.302704-2.786697,0.401398-5.166992,0.407211-6.87059c0-1.847214-0.093704-2.930206-0.093704-3.03421
			c-0.198303-2.330597-2.242203-4.045898-4.5625-3.847702c-2.330109,0.186508-4.044907,2.236801-3.847702,4.562012
			l-0.010696-0.010712c0,0.010712,0.071289,0.752899,0.071289,2.330612c0.011703,4.243088-0.631897,13.724991-5.138687,23.448685
			c-0.973602,2.121597-0.0439,4.633301,2.072296,5.611801c0.565399,0.258301,1.164993,0.384796,1.758804,0.384796
			c1.593689,0,3.126892-0.906784,3.847595-2.457092c1.890594-4.105896,3.166-8.112793,4.050797-11.795898l5.441406,0.907303
			v29.609802l-12.735397,7.855499c-1.990204,1.214798-2.611313,3.814392-1.379807,5.803696
			c0.791992,1.291992,2.170898,2.006805,3.583893,2.006805c0.758804,0,1.522507-0.20311,2.22081-0.631805l8.310501-5.123001
			v20.496994c0,2.325211,1.879898,4.210007,4.221695,4.210007c2.330093,0,4.221695-1.884796,4.221695-4.210007v-25.697189
			l2.104492-1.296906c-0.268585,0.291-0.483398,0.587906-0.763672,0.874008c-1.627014,1.670898-1.588928,4.341782,0.082977,5.980499
			c0.818298,0.79689,1.879913,1.192398,2.945313,1.192398c1.099609,0,2.199188-0.428711,3.03418-1.275406
			c13.5-13.939499,16.781219-29.555191,16.891602-29.983902c0.478516-2.281296-0.989288-4.5186-3.264679-4.991196
			c-2.281219-0.489304-4.518494,0.9785-4.985321,3.253906h-0.016602c0,0-0.670898,3.232391-2.88089,8.2397
			c-1.742188,3.946289-4.468689,8.832993-8.393494,13.675781c0.280212-1.072281,0.148407-2.243195-0.483398-3.253891
			c-0.917999-1.500992-2.627014-2.21579-4.270508-1.951202v-23.383301l2.34079,0.390701
			c-0.42868,0.791504-0.862274,1.533203-1.286194,2.148911c-1.313385,1.929199-0.824188,4.556595,1.122101,5.8647
			c0.725616,0.495087,1.549805,0.731491,2.369202,0.731491c1.351501,0,2.68161-0.649002,3.500916-1.8526
			c1.654297-2.4897,3.176788-5.590302,4.550781-8.866196c2.055695-0.005402,5.079102-0.005402,8.245117-0.005402
			c5.590881,0,11.515686,0.016708,12.834991,0c0.324188,0,0.543915,0.049408,0.637695,0.071304
			c0.109406,0.198303,0.406219,1.027893,0.406219,2.743195c-0.010712,5.804199-0.010712,41.708008,0,47.826202
			c-0.538025,0.868088-3.616211,3.204102-6.392517,4.671799c-2.896484,1.632904-5.474609,2.764694-5.474609,2.764694
			c-2.143585,0.940399-3.110382,3.43071-2.176788,5.568405c0.698212,1.583008,2.248993,2.528305,3.876007,2.528305
			c0.565399,0,1.142487-0.115311,1.692383-0.356506c0.093719-0.049805,3.792908-1.660095,7.667908-3.985306
			c1.940491-1.149399,3.919006-2.48439,5.628906-4.023499c1.599609-1.588791,3.446289-3.297791,3.611389-6.739197
			c0-4.567398,0-42.29689,0-48.254898C303.029297,184.18071,302.265594,181.190399,300.170898,179.019501z"/>
		<path fill="#0334A6" d="M284.225586,207.09671c-2.281281-0.4785-4.518585,0.989197-4.99118,3.264587h-0.010803
			c0,0-0.670898,3.237305-2.885712,8.239304c-2.209991,5.012711-5.919891,11.548798-11.795898,17.584
			c-1.632813,1.670898-1.599609,4.34761,0.082001,5.980392c0.824188,0.796906,1.885803,1.198303,2.946289,1.198303
			c1.099609,0,2.198303-0.428696,3.023499-1.281296c13.499023-13.933594,16.786102-29.566391,16.890625-29.9785
			C287.968781,209.817398,286.50589,207.580109,284.225586,207.09671z"/>
	</g>
</g>
</svg>
