<svg class="svgOrigin" xmlns="http://www.w3.org/2000/svg" width="400" height="400" x="0px" y="0px" viewBox="0 0 400 400" enable-background="new 0 0 400 400">
<g>
	
		<rect x="61.171597" y="61.171604" transform="matrix(0.707107 -0.707107 0.707107 0.707107 -82.842712 200)" width="277.656799" height="277.656799"/>
	<polygon fill="none" stroke="#FFD113" stroke-width="3.84133" points="199.995102,389.095703 10.9043,200 199.995102,10.90431 
		389.09079,200 199.995102,389.095703 	"/>
	<g>
		<path fill="#FFD113" d="M221.727493,346.876007c-11.949203,11.949188-31.505798,11.949188-43.4599,0L53.124001,221.727509
			c-11.954102-11.949203-11.954102-31.505798,0-43.455002L178.267593,53.124001c11.954102-11.95409,31.510696-11.95409,43.4599,0
			l125.148514,125.148506c11.954071,11.949203,11.954071,31.505798,0,43.455002L221.727493,346.876007z"/>
	</g>
	<path d="M220.461899,119.537109c0,0,30.970688,9.213394,33.251999,22.717804
		c2.280197,13.509689-2.9366,31.431091-1.696304,34.35199c1.236298,2.920898,1.890594,6.086899,0.885696,11.198807
		c-1,5.116699-2.760696,13.309494-5.926697,16.576096c-1.536194,1.585007-8.297897,0.639694-15.020493-0.890594
		c-1.065506,3.516602-2.086014,6.952194-2.80571,9.553696c-2.351593,8.432602-11.994095,3.571304-11.264694,0.089905
		c0.400391-1.93071,1.600601-7.882813,2.585999-12.804703c-1.885803-0.625-3.2061-1.150406-3.515594-1.410706
		c-1.510803-1.289993-6.517609-8.542892-10.5186-8.222595c-3.997101,0.314896-12.564499,0.99559-12.564499,0.99559
		s-6.077103-6.077194-8.912994-8.913086c-2.836014-2.836411-11.354004-0.565399-13.339905-0.565399
		c-0.405304,0-1.750504-0.460007-3.591309-1.21051c-2.440903,4.386703-5.391602,9.693405-6.336899,11.423798
		c-1.705597,3.121109-12.199203,0.565506-8.513199-7.377396c1.1353-2.445801,2.590805-5.722198,4.061493-9.087906
		c-6.112289-3.196289-11.869095-6.867691-12.009186-9.073196c-0.285202-4.536591,3.691391-11.914093,6.246994-16.4561
		c2.556198-4.541489,5.10701-6.526794,7.942902-7.947189c2.835892-1.420898,10.498505-18.441505,20.997101-27.239807
		C190.917007,106.447807,220.461899,119.537109,220.461899,119.537109z"/>
	<path fill="#FFD113" d="M210.148392,147.526901c0,0,16.230499,5.356903,28.940506,15.820297
		c3.076096,2.531204,11.933594-14.435089,5.455994-19.961899c-6.476501-5.521988-17.830994-10.653397-27.748993-13.889694
		l-0.004898-0.004898c-9.648407-3.97171-21.617706-7.432602-30.130798-7.432602c-8.512711,0-12.779312,18.656296-8.797913,18.726608
		C194.323196,141.069809,210.148392,147.526901,210.148392,147.526901z"/>
	<path d="M127.355003,278.367218c0,0,18.586388-0.400421,27.549294-5.521515
		c8.963394-5.122101,14.259796-8.413086,14.484894-17.366196c0.0952-3.792007-4.8013-7.20311-10.083496-11.604507
		c-5.281799-4.401398-7.4673-8.5625-7.522491-14.564499c-0.055206-6.002899,6.212387-13.544891,11.108887-16.8564
		c4.897003-3.310501,13.034698-5.827103,23.463409-6.591797c9.373001-0.690399,19.151291,1.660202,19.151291,1.660202
		s-12.884201,0.820297-23.312988,4.501892c-6.387207,2.251007-11.253906,5.121109-14.91011,8.083008
		c-3.656296,2.960999-5.416992,5.361298-5.096695,9.6026c0.230011,3.051697,2.695801,6.652298,5.761703,9.203094
		c3.066391,2.551697,12.24469,6.882797,11.709,17.166c-0.589798,11.394501-10.953598,20.317413-22.227509,23.328094
		C146.156296,282.418915,127.355003,278.367218,127.355003,278.367218z"/>
	<path d="M143.370102,230.251007c-10.808609-4.082108-15.790009-8.083008-15.3452-14.05571
		c0.660202-8.882797,14.060104-14.049789,44.025391-15.775391c0,0-9.27829-3.050797-25.724091-1.990204
		c-16.445313,1.059998-29.304703,8.752899-28.774902,18.826202c0.315399,6.041992,7.747993,13.410095,19.961899,19.341797
		C142.490204,239.013702,145.25589,230.960907,143.370102,230.251007z"/>
	<path d="M248.026398,251.998001c-13.229507-7.743103-44.475601-8.608398-68.9785-12.333893
		c-2.596207-0.395508,4.836395,8.2724,6.567291,8.472595c22.162109,2.501007,41.279312,3.630905,49.151413,9.823288
		c9.94429,7.828125,8.383789,21.9375-4.476608,26.579102c-12.859299,4.641602-21.777298,3.792023-21.777298,3.792023
		s22.377899,5.70108,35.372101-4.242218C256.879883,274.145508,260.71579,259.425812,248.026398,251.998001z"/>
</g>
</svg>
