<svg class="svgOrigin" xmlns="http://www.w3.org/2000/svg" width="400" height="400" x="0px" y="0px" viewBox="0 0 400 400" enable-background="new 0 0 400 400">
<g>
	<g>
		<g>
			<path fill="#0334A6" d="M12.9282,354.449188V45.592808C12.9282,24.783209,29.9102,7.855,50.666,7.855h298.666992
				c20.80957,0,37.738281,16.928209,37.738281,37.737808v308.856384c0,20.809601-16.928711,37.738312-37.738281,37.738312H50.666
				C29.9102,392.1875,12.9282,375.258789,12.9282,354.449188z"/>
			<path fill="#0334A6" d="M349.333008,2.46391c23.666992,0,43.128876,19.408199,43.128876,43.128899v308.856384
				c0,23.720703-19.461884,43.128937-43.128876,43.128937H50.666c-23.667,0-43.128891-19.408234-43.128891-43.128937V45.592808
				C7.53711,21.87211,26.999001,2.46391,50.666,2.46391H349.333008z M12.9282,45.592808v308.856384
				c0,20.809601,16.982,37.738312,37.737801,37.738312h298.666992c20.80957,0,37.738281-16.928711,37.738281-37.738312V45.592808
				c0-20.809599-16.928711-37.737808-37.738281-37.737808H50.666C29.9102,7.855,12.9282,24.783209,12.9282,45.592808z"/>
		</g>
		<g>
			<path fill="none" stroke="#FFFFFF" stroke-width="5.39111" d="M349.333008,392.1875H50.666
				c-20.7558,0-37.737801-16.928711-37.737801-37.738312V45.592808C12.9282,24.783209,29.9102,7.855,50.666,7.855h298.666992
				c20.80957,0,37.738281,16.928209,37.738281,37.737808v308.856384C387.071289,375.258789,370.142578,392.1875,349.333008,392.1875
				z"/>
		</g>
	</g>
	<rect x="347.703094" y="43.171909" fill="#FFFFFF" width="11.7715" height="43.3974"/>
	<rect x="347.703094" y="132.623001" fill="#FFFFFF" width="11.7715" height="43.397507"/>
	<rect x="347.703094" y="222.070297" fill="#FFFFFF" width="11.7715" height="43.402397"/>
	<rect x="347.703094" y="311.519501" fill="#FFFFFF" width="11.7715" height="43.402401"/>
	<rect x="37.929699" y="43.171909" fill="#FFFFFF" width="11.7773" height="43.3974"/>
	<rect x="37.929699" y="132.623001" fill="#FFFFFF" width="11.7773" height="43.397507"/>
	<rect x="37.929699" y="222.070297" fill="#FFFFFF" width="11.7773" height="43.402397"/>
	<rect x="37.929699" y="311.519501" fill="#FFFFFF" width="11.7773" height="43.402401"/>
	<path fill="#FFFFFF" d="M212.156296,146.358414h-71.753494v-0.007813c2.8116-4.064499,5.770493-8.407196,8.302795-12.263687
		c7.491699-11.398407,1.79541-18.071304-6.670395-14.32811c-6.923401,3.058601-45.9981,25.0625-60.407799,34.355499
		c-3.216805,2.074203-6.186005,4.210907-6.186005,7.070297c0,2.858398,2.9692,4.996109,6.186005,7.070313
		c14.409698,9.291992,53.484398,31.295898,60.407799,34.354492c8.465805,3.740204,14.162094-2.928696,6.670395-14.327194
		c-2.532303-3.859299-5.491196-8.20311-8.302795-12.269501l71.753494-0.007813
		c28.493103,0.054703,51.541885,23.109406,51.599594,51.594711v115.349579h29.646393V227.599609
		C293.391602,182.725601,257.033203,146.36911,212.156296,146.358414z"/>
</g>
</svg>
