<svg class="svgOrigin" xmlns="http://www.w3.org/2000/svg" width="400" height="400" x="0px" y="0px" viewBox="0 0 400 400" enable-background="new 0 0 400 400">
<g>
	
		<rect x="61.171597" y="61.171604" transform="matrix(0.707107 -0.707107 0.707107 0.707107 -82.842712 199.999985)" width="277.656799" height="277.656799"/>
	<polygon fill="none" stroke="#FFD113" stroke-width="3.84133" points="10.9043,200 200,10.90431 389.095703,200 200,389.095703 
		10.9043,200 	"/>
	<g>
		<path fill="#FFD113" d="M53.124001,221.727509c-11.954102-11.954102-11.954102-31.510696,0-43.4599L178.267593,53.11911
			c11.954102-11.9492,31.505798-11.9492,43.4599,0l125.148514,125.148499c11.949188,11.949203,11.949188,31.505798,0,43.4599
			L221.727493,346.876007c-11.954102,11.949188-31.505798,11.949188-43.4599,0L53.124001,221.727509z"/>
	</g>
	<path d="M174.335892,126.449707c8.74321-6.202103,16.840897,4.251495,7.612808,15.505402
		c-1.530701,1.865204-3.230911,4.036102-4.986801,6.336899c-2.240707,2.980896-0.254898,7.127396,4.846695,7.127396h73.680695
		v120.941895h-34.65239V188.7612h-38.362808c-10.693802,0-7.752899,4.361404-5.51709,7.327698
		c1.760788,2.305603,3.460999,4.476501,4.991699,6.346603c9.228088,11.253998,1.130402,21.708099-7.612808,15.505905
		c-8.737793-6.202103-56.104492-45.746094-56.104492-45.746094S165.598099,132.651901,174.335892,126.449707z"/>
</g>
</svg>
