<svg class="svgOrigin" xmlns="http://www.w3.org/2000/svg" width="400" height="400" x="0px" y="0px" viewBox="0 0 400 400" enable-background="new 0 0 400 400">
<g>
	
		<rect x="60.464493" y="60.464497" transform="matrix(0.707107 -0.707107 0.707107 0.707107 -82.842712 199.999985)" width="279.071014" height="279.071014"/>
	<polygon fill="none" stroke="#FFD113" stroke-width="3.8609" points="9.94141,200 200,9.94141 390.05368,200 200,390.058594 
		9.94141,200 	"/>
	<g>
		<path fill="#FFD113" d="M52.375999,221.837906c-12.015198-12.014694-12.015198-31.670898,0-43.681198L178.156693,52.371109
			c12.015198-12.0103,31.671402-12.0103,43.681198,0l125.786102,125.785599c12.014709,12.0103,12.014709,31.666504,0,43.681198
			L221.837891,347.623993c-12.009796,12.009796-31.666,12.009796-43.681198,0L52.375999,221.837906z"/>
	</g>
	<path d="M240.735397,117.965805c-8.787201-6.233398-16.931702,4.273499-7.651398,15.584503
		c1.538101,1.875,3.248001,4.057098,5.00679,6.369598c2.253006,2.996094-0.557602,6.344299-4.866196,7.163605
		c-0.070297,0.015091-0.095703,0.045395-0.155304,0.060486c-27.494095,4.564514-51.589294,21.657303-70.240189,42.228607
		c-21.47171,24.281708-36.568405,53.855896-36.904808,83.140091h36.029808
		c-0.341812-15.569305,10.521988-40.288086,27.699692-59.070297c12.714401-14.3526,28.424301-25.030289,42.902802-29.3638
		c6.650406-1.542999,7.787201,0.899902,5.544998,3.881409c-1.769592,2.317291-3.479492,4.498993-5.017593,6.379395
		c-9.280304,11.311005-1.135803,21.81781,7.651398,15.584396c8.782196-6.234299,56.385696-45.978989,56.385696-45.978989
		S249.517593,124.199707,240.735397,117.965805z"/>
</g>
</svg>
