<svg class="svgOrigin" xmlns="http://www.w3.org/2000/svg" width="400" height="400" x="0px" y="0px" viewBox="0 0 400 400" enable-background="new 0 0 400 400">
<g>
	
		<rect x="60.199085" y="60.199825" transform="matrix(0.707098 -0.707116 0.707116 0.707098 -82.842926 200.002975)" width="279.600342" height="279.600342"/>
	<polygon fill="none" stroke="#FFD113" stroke-width="3.86819" points="390.415985,200 199.998001,9.582 9.58008,200 
		199.998001,390.417969 390.415985,200 	"/>
	<g>
		<path fill="#FFD113" d="M347.905304,221.878906c12.033173-12.037094,12.033173-31.730499,0-43.763199L221.88179,52.092308
			c-12.032196-12.0327-31.730392-12.0327-43.763092,0L52.0952,178.115707c-12.037601,12.0327-12.037601,31.726105,0,43.763199
			l126.023499,126.023407c12.0327,12.033173,31.730896,12.033173,43.763092,0L347.905304,221.878906z"/>
	</g>
	<path d="M159.185501,117.810997c8.804199-6.24559,16.958496,4.280807,7.666092,15.613808
		c-1.541092,1.878906-3.253891,4.064896-5.022003,6.381805c-2.256393,3.001495,0.564011,6.356003,4.880798,7.176804
		c0.070404,0.015091,0.09581,0.045395,0.156311,0.060486c27.545395,4.573303,51.686996,21.698303,70.372589,42.308609
		c21.511719,24.327194,36.637726,53.957993,36.979492,83.296906h-36.102585
		c0.342804-15.598602-10.537094-40.364212-27.752899-59.18161c-12.737808-14.379395-28.4776-25.077698-42.982895-29.419495
		c-6.669006-1.545898-7.807205,0.901901-5.55571,3.888687c1.77301,2.321808,3.485809,4.507813,5.026901,6.391602
		c9.292404,11.332504,1.138107,21.859909-7.666092,15.6138c-8.799301-6.245087-56.497002-46.065399-56.497002-46.065399
		S150.3862,124.05661,159.185501,117.810997z"/>
</g>
</svg>
