<svg class="svgOrigin" xmlns="http://www.w3.org/2000/svg" width="400" height="400" x="0px" y="0px" viewBox="0 0 400 400" enable-background="new 0 0 400 400">
<g>
	
		<rect x="61.171597" y="61.172806" transform="matrix(0.707102 -0.707111 0.707111 0.707102 -82.843567 200.00209)" width="277.656799" height="277.656799"/>
	<polygon fill="none" stroke="#FFD113" stroke-width="3.84133" points="199.995102,389.095703 10.9043,200.002411 
		199.995102,10.907209 389.09079,200.002411 199.995102,389.095703 	"/>
	<g>
		<path fill="#FFD113" d="M221.727493,346.876007c-11.949203,11.954102-31.505798,11.954102-43.4599,0l-125.143593-125.1436
			c-11.954102-11.954102-11.954102-31.508301,0-43.4599L178.267593,53.124001c11.954102-11.951591,31.510696-11.951591,43.4599,0
			l125.148514,125.148506c11.954071,11.951599,11.954071,31.505798,0,43.4599L221.727493,346.876007z"/>
	</g>
	<path d="M280.208008,180.553207l-0.015625,0.007294c-5.756897-8.535095-16.650391-14.304596-29.165085-14.304596
		c-11.20311,0-21.096603,4.634201-27.184509,11.726501c-0.044891,0.0401-0.08989,0.067398-0.129898,0.109894
		c-6.497101,6.497498-10.587891,16.325699-17.315399,16.325699h-9.973694c-6.727509,0-10.818802-9.828201-17.315903-16.325699
		c-0.039993-0.042496-0.085007-0.069794-0.130402-0.109894c-6.086899-7.0923-15.980392-11.726501-27.18399-11.726501
		c-12.514709,0-23.408203,5.769501-29.165108,14.304596l-0.015099-0.007294
		c-7.977997,10.871094-27.814995,13.864792-27.814995,13.864792v49.617203h213.224182v-49.617203
		C308.022491,194.417999,288.185486,191.424301,280.208008,180.553207z"/>
</g>
</svg>
