<svg class="svgOrigin" xmlns="http://www.w3.org/2000/svg" width="400" height="400" x="0px" y="0px" viewBox="0 0 400 400" enable-background="new 0 0 400 400">
<g>
	
		<rect x="61.171597" y="61.174057" transform="matrix(0.707098 -0.707116 0.707116 0.707098 -82.844452 200.004257)" width="277.656799" height="277.656799"/>
	<polygon fill="none" stroke="#FFD113" stroke-width="3.84133" points="199.995102,389.095703 10.9048,200.004898 
		199.995102,10.90481 389.09079,200.004898 199.995102,389.095703 	"/>
	<g>
		<path fill="#FFD113" d="M221.727493,346.876007c-11.949203,11.954102-31.505798,11.954102-43.460403,0l-125.143089-125.1436
			c-11.954102-11.954102-11.954102-31.510696,0-43.459503L178.26709,53.124001c11.954605-11.949192,31.5112-11.949192,43.460403,0
			l125.148514,125.148903c11.954071,11.948807,11.954071,31.505402,0,43.459503L221.727493,346.876007z"/>
	</g>
	<rect x="226.69429" y="117.255905" width="29.7803" height="155.518494"/>
	<polygon points="191.121597,171.854996 167.133789,209.07811 167.133789,272.774414 137.352997,272.774414 137.352997,209.07811 
		161.341797,171.854996 161.341797,117.255905 191.121597,117.255905 	"/>
	<rect x="184.1689" y="195.218704" width="3.3663" height="16.469799"/>
	<rect x="184.1689" y="223.292999" width="3.3663" height="16.471603"/>
	<rect x="184.1689" y="251.367203" width="3.3663" height="16.471699"/>
	<rect x="212.428696" y="223.292999" width="3.3672" height="16.471603"/>
	<rect x="212.428696" y="251.367203" width="3.3672" height="16.471699"/>
	<rect x="212.428696" y="122.227997" width="3.3672" height="22.458506"/>
	<rect x="212.428696" y="157.035202" width="3.3672" height="22.458"/>
	<rect x="212.428696" y="189.496613" width="3.3672" height="22.457499"/>
</g>
</svg>
