<svg class="svgOrigin" xmlns="http://www.w3.org/2000/svg" width="400" height="400" x="0px" y="0px" viewBox="0 0 400 400" enable-background="new 0 0 400 400">
<g>
	<g>
		<path fill="#0334A6" d="M396.352478,369.476593c0,12.126892-9.920898,22.036102-22.036102,22.036102H25.684099
			c-12.121099,0-22.03615-9.90921-22.03615-22.036102V30.522509c0-12.1206,9.91505-22.035698,22.03615-22.035698h348.632263
			c12.115204,0,22.036102,9.915099,22.036102,22.035698V369.476593z"/>
	</g>
	<g>
		<path fill="none" stroke="#FFFFFF" stroke-width="4.13172" d="M390.402283,364.344696
			c0,11.759796-9.61908,21.368195-21.36908,21.368195H30.964399c-11.752499,0-21.36919-9.608398-21.36919-21.368195V35.654808
			c0-11.754898,9.616691-21.368698,21.36919-21.368698h338.068817c11.75,0,21.36908,9.6138,21.36908,21.368698V364.344696z"/>
	</g>
	<polygon fill="#FFFFFF" points="370.248993,77.17141 370.248993,36.537109 379.890594,36.537109 379.890594,77.17141 
		370.248993,77.17141 	"/>
	<polygon fill="#FFFFFF" points="370.248993,162.291 370.248993,121.662605 379.890594,121.662605 379.890594,162.291 
		370.248993,162.291 	"/>
	<polygon fill="#FFFFFF" points="370.248993,247.397507 370.248993,206.779312 379.890594,206.779312 379.890594,247.397507 
		370.248993,247.397507 	"/>
	<polygon fill="#FFFFFF" points="166.164993,77.17141 166.164993,36.537109 175.805695,36.537109 175.805695,77.17141 
		166.164993,77.17141 	"/>
	<polygon fill="#FFFFFF" points="166.162598,162.291 166.162598,121.662605 175.797897,121.662605 175.797897,162.291 
		166.162598,162.291 	"/>
	<polygon fill="#FFFFFF" points="166.157196,247.397507 166.157196,206.779312 175.800293,206.779312 175.800293,247.397507 
		166.157196,247.397507 	"/>
	<polygon fill="#FFFFFF" points="21.070801,77.17141 21.070801,36.537109 30.711399,36.537109 30.711399,77.17141 
		21.070801,77.17141 	"/>
	<polygon fill="#FFFFFF" points="21.0732,162.291 21.0732,121.662605 30.711399,121.662605 30.711399,162.291 21.0732,162.291 	"/>
	<polygon fill="#FFFFFF" points="21.0762,247.397507 21.0762,206.779312 30.7085,206.779312 30.7085,247.397507 21.0762,247.397507 
			"/>
	<path fill="#FFFFFF" d="M317.838898,115.421906c-4.400391-7.337906-21.207092-35.383301-33.064514-55.186497
		c-7.004883-11.685101-9.758789-17.075699-12.287079-17.075699c-2.518524,0-5.336914,5.498501-12.406219,17.285599
		c-11.857498,19.7925-28.545898,47.665501-32.935593,54.976597c-7.004898,11.6689,1.334,18.334396,13.665009,9.334
		c4.5401-3.313995,10.028397-7.1661,15.160187-10.716797v124.041h33.053696V114.044411
		c5.122101,3.550797,10.609406,7.402893,15.138702,10.711494C316.504883,133.756302,324.843781,127.090805,317.838898,115.421906z"
		/>
	<path fill="#FFFFFF" d="M380.729492,345.569305c0,7.230499-5.853485,13.083008-13.084015,13.083008
		c-7.219696,0-13.083984-5.852509-13.083984-13.083008c0-7.219696,5.864288-13.083893,13.083984-13.083893
		C374.876007,332.485413,380.729492,338.349609,380.729492,345.569305z"/>
	<path fill="#FFFFFF" d="M352.43158,345.569305c0,7.230499-5.864197,13.083008-13.083893,13.083008
		c-7.230499,0-13.083984-5.852509-13.083984-13.083008c0-7.219696,5.853485-13.083893,13.083984-13.083893
		C346.567383,332.485413,352.43158,338.349609,352.43158,345.569305z"/>
	<path fill="#FFFFFF" d="M261.684601,332.420898h-59.773499c-2.979904,0-3.475098-2.754913-3.475098-4.820313
		c0-2.066376,0-23.585999,0-26.684601c0-3.098572-1.032715-3.701172-2.496109-3.701172c-1.463303,0-20.927704,0-22.638596,0
		c-1.6436,0-19.636307,22.638672-19.636307,23.800781c0,1.172913,0,3.733398,0,7.06842c0,3.34668,1.42041,0.893494,1.42041,4.013672
		c0,3.109314,0.225601,4.669922-1.11911,4.669922c-2.786591,0-3.001892,8.801697,0,8.801697h12.190903
		c0-8.726501,7.104004-15.838806,15.837906-15.838806c8.73439,0,15.838394,7.112305,15.838394,15.838806h56.813995
		C254.647491,340.091797,257.445282,335.260712,261.684601,332.420898z"/>
	<path fill="#FFFFFF" d="M378.598602,278.364288H238.464798c-1.517502,0-2.754791,1.237305-2.754791,2.753906v47.514618
		c0,1.517578,1.237289,2.754883,2.754791,2.754883h38.928787c5.261719,2.57132,8.930603,7.940399,8.930603,14.18161h1.645508
		c1.270508,0,3.03421,0,4.304688,0c1.25882,0,1.893616-0.495117,1.893616-1.635712s0-6.197296,0-8.855499
		c0-2.657196,2.916016-3.690399,4.561493-3.690399h79.86911c1.517578,0,2.754883-1.237305,2.754883-2.754883v-47.514618
		C381.353485,279.601593,380.11618,278.364288,378.598602,278.364288z"/>
	<path fill="#FFFFFF" d="M270.485382,332.485413c-7.230499,0-13.083099,5.864197-13.083099,13.083893
		c0,7.230499,5.8526,13.083008,13.083099,13.083008c7.219696,0,13.083923-5.852509,13.083923-13.083008
		C283.569305,338.349609,277.705078,332.485413,270.485382,332.485413z"/>
	<path fill="#FFFFFF" d="M181.995102,332.485413c-7.225098,0-13.083511,5.864197-13.083511,13.083893
		c0,7.230499,5.858414,13.083008,13.083511,13.083008s13.084-5.852509,13.084-13.083008
		C195.079102,338.349609,189.2202,332.485413,181.995102,332.485413z"/>
	<g>
		<path fill="#0334A6" d="M165.71579,310.373993c-0.941391,1.183594-1.710892,3.400421-1.710892,4.916992v0.6026
			c0,1.517517,1.240204,2.754822,2.754898,2.754822h12.653305c1.514099,0,2.754395-1.237305,2.754395-2.754822V305.30661
			c0-1.517517-1.240295-2.754822-2.754395-2.754822h-4.734406c-1.514603,0-3.523895,0.968719-4.465302,2.152313
			L165.71579,310.373993z"/>
	</g>
</g>
</svg>
