<svg class="svgOrigin" xmlns="http://www.w3.org/2000/svg" width="400" height="400" x="0px" y="0px" viewBox="0 0 400 400" enable-background="new 0 0 400 400">
<g>
	
		<rect x="61.171597" y="61.171604" transform="matrix(0.707107 -0.707107 0.707107 0.707107 -82.842712 200)" width="277.656799" height="277.656799"/>
	<polygon fill="none" stroke="#FFD113" stroke-width="3.84133" points="200.004898,389.095703 389.095703,200 200.004898,10.90431 
		10.9097,200 200.004898,389.095703 	"/>
	<g>
		<path fill="#FFD113" d="M178.272491,346.876007c11.949203,11.949188,31.505798,11.949188,43.4599,0l125.143616-125.148499
			c11.954071-11.949203,11.954071-31.505798,0-43.455002L221.732391,53.124001c-11.954102-11.95409-31.510696-11.95409-43.4599,0
			L53.124001,178.272507c-11.954102,11.949203-11.954102,31.505798,0,43.455002L178.272491,346.876007z"/>
	</g>
	<path d="M120.167496,142.479996c2.851105-4.886688,15.4702-25.648888,20.356903-33.791489
		c4.886703-8.143097,8.547897-16.690903,17.50589-16.690903c8.958511,0,12.619614,8.547806,17.506302,16.690903
		c4.886703,8.142601,17.505905,28.9048,20.35701,33.791489c2.850998,4.886703-0.810104,11.404312-11.804199,3.666504
		c-1.445404-1.015594-3.021011-2.09079-4.621613-3.1763c-3.876495-2.615692-6.066895,0.210007-6.066895,3.311005v1.495697
		c0.134705,12.434509,3.721207,20.237305,10.208496,28.620102c9.688507,12.514099,27.514603,23.883301,44.4599,40.233902
		c16.925797,16.185501,32.341812,40.018509,32.04689,74.045883h-30.725586
		c-0.085907-16.936584-4.357407-28.134796-10.934494-38.098679c-9.837906-14.91011-26.669006-26.378906-43.179703-40.838806
		c-16.250504-14.055191-32.846207-34.236893-32.611404-63.962402v-1.495697c0-3.105896-2.195801-5.936996-6.082001-3.300705
		c-1.600601,1.080002-3.170898,2.150406-4.611801,3.166C120.977493,153.884308,117.316399,147.366699,120.167496,142.479996z"/>
</g>
</svg>
