<svg class="svgOrigin" xmlns="http://www.w3.org/2000/svg" width="400" height="400" x="0px" y="0px" viewBox="0 0 400 400" enable-background="new 0 0 400 400">
<g>
	
		<rect x="61.01165" y="61.010773" transform="matrix(0.707111 -0.707102 0.707102 0.707111 -82.842094 199.997955)" width="277.976715" height="277.976715"/>
	<polygon fill="none" stroke="#FFD113" stroke-width="3.84574" points="199.995102,389.308594 10.687,199.998505 
		199.995102,10.69041 389.308594,199.998505 199.995102,389.308594 	"/>
	<g>
		<path fill="#FFD113" d="M221.751999,347.045898c-11.959991,11.963898-31.541611,11.963898-43.510803,0l-125.286095-125.2939
			c-11.966801-11.954102-11.966801-31.536194,0-43.504898L178.241196,52.953609c11.969193-11.9692,31.550812-11.9692,43.510803,0
			l125.292892,125.293488c11.968811,11.968704,11.968811,31.550797,0,43.504898L221.751999,347.045898z"/>
	</g>
	<path d="M283.134796,243.655304c3.676697-2.376007,6.128906-6.483398,6.128906-11.188507
		c0-0.123093-0.033203-0.226593-0.033203-0.339798h16.705994v-4.695389H95.300797v4.695389h18.015099
		c-0.002396,0.113205-0.033195,0.216705-0.033195,0.339798c0,4.705109,2.449196,8.8125,6.128899,11.188507h-31.875v4.505798
		h225.958496v-4.505798H283.134796z M133.808594,243.655304c3.679703-2.376007,6.128906-6.483398,6.128906-11.188507
		c0-0.123093-0.030807-0.226593-0.033203-0.339798h3.397903c-0.002411,0.113205-0.033203,0.216705-0.033203,0.339798
		c0,4.705109,2.449295,8.8125,6.128906,11.188507H133.808594z M163.794891,243.655304
		c3.679703-2.376007,6.128906-6.483398,6.128906-11.188507c0-0.123093-0.030701-0.226593-0.033203-0.339798h62.764694
		c0,0.113205-0.033188,0.216705-0.033188,0.339798c0,4.705109,2.452087,8.8125,6.128906,11.188507H163.794891z
		 M253.148392,243.655304c3.676804-2.376007,6.128891-6.483398,6.128891-11.188507c0-0.123093-0.033203-0.226593-0.033203-0.339798
		h3.397522c0,0.113205-0.032196,0.216705-0.032196,0.339798c0,4.705109,2.45108,8.8125,6.127899,11.188507H253.148392z"/>
	<path d="M305.936493,174.044403c0-7.998505-6.540009-14.539001-14.538086-14.539001H162.526398l16.294891-10.620102
		c0.688507-0.468292,1.112305-1.24469,1.093307-2.082596c-0.012299-0.8423-0.4664-1.608902-1.183197-2.034592l-26.048798-15.442902
		c-0.757309-0.454605-1.718201-0.454605-2.475601,0l-26.048805,15.442902c-0.716797,0.42569-1.170898,1.192291-1.183098,2.034592
		c-0.0186,0.837906,0.3955,1.614304,1.0933,2.082596l16.297295,10.620102h-30.525894
		c-7.996002,0-14.539001,6.540497-14.539001,14.539001v51.569901h210.635696V174.044403z M149.248993,159.505402
		l-19.26709-12.560593l21.457993-12.726105l21.467804,12.735901l-19.257309,12.550797H149.248993z"/>
	<g>
		<path fill="#FFD113" d="M160.534195,193.202103c0,2.664597-2.182098,4.846695-4.846695,4.846695h-9.086411
			c-2.664597,0-4.846191-2.182098-4.846191-4.846695v-18.475998c0-2.664597,2.181595-4.846695,4.846191-4.846695h9.086411
			c2.664597,0,4.846695,2.182098,4.846695,4.846695V193.202103z"/>
	</g>
	<g>
		<path fill="#FFD113" d="M185.674301,193.202103c0,2.664597-2.182098,4.846695-4.84671,4.846695h-9.086395
			c-2.664505,0-4.846695-2.182098-4.846695-4.846695v-18.475998c0-2.664597,2.18219-4.846695,4.846695-4.846695h9.086395
			c2.664612,0,4.84671,2.182098,4.84671,4.846695V193.202103z"/>
	</g>
	<g>
		<path fill="#FFD113" d="M210.814499,193.202103c0,2.664597-2.181702,4.846695-4.84671,4.846695h-9.086487
			c-2.664505,0-4.846603-2.182098-4.846603-4.846695v-18.475998c0-2.664597,2.182098-4.846695,4.846603-4.846695h9.086487
			c2.665009,0,4.84671,2.182098,4.84671,4.846695V193.202103z"/>
	</g>
	<g>
		<path fill="#FFD113" d="M235.954102,193.202103c0,2.664597-2.18161,4.846695-4.845703,4.846695H222.0215
			c-2.6651,0-4.84671-2.182098-4.84671-4.846695v-18.475998c0-2.664597,2.18161-4.846695,4.84671-4.846695h9.086899
			c2.664093,0,4.845703,2.182098,4.845703,4.846695V193.202103z"/>
	</g>
	<g>
		<path fill="#FFD113" d="M261.094696,193.202103c0,2.664597-2.18161,4.846695-4.84671,4.846695h-9.086899
			c-2.663986,0-4.845688-2.182098-4.845688-4.846695v-18.475998c0-2.664597,2.181702-4.846695,4.845688-4.846695h9.086899
			c2.6651,0,4.84671,2.182098,4.84671,4.846695V193.202103z"/>
	</g>
	<g>
		<path fill="#FFD113" d="M291.989288,193.202103c0,2.664597-2.181702,4.846695-4.845703,4.846695h-6.966797
			c-2.6651,0-4.84671-2.182098-4.84671-4.846695v-14.841293c0-2.664505,2.18161-4.846603,4.84671-4.846603h6.966797
			c2.664001,0,4.845703,2.182098,4.845703,4.846603V193.202103z"/>
	</g>
	<g>
		<path fill="#FFD113" d="M126.7612,193.202103c0,2.664597-2.181602,4.846695-4.846199,4.846695H114.9487
			c-2.664505,0-4.846199-2.182098-4.846199-4.846695v-14.841293c0-2.664505,2.181694-4.846603,4.846199-4.846603h6.966301
			c2.664597,0,4.846199,2.182098,4.846199,4.846603V193.202103z"/>
	</g>
	<path fill="none" d="M143.268997,232.466797c0-0.123093,0.030792-0.226593,0.033203-0.339798h-3.397903
		c0.002396,0.113205,0.033203,0.216705,0.033203,0.339798c0,4.705109-2.449203,8.8125-6.128906,11.188507h15.58931
		C145.718292,241.279297,143.268997,237.171906,143.268997,232.466797z"/>
	<path fill="none" d="M232.622101,232.466797c0-0.123093,0.033188-0.226593,0.033188-0.339798h-62.764694
		c0.002502,0.113205,0.033203,0.216705,0.033203,0.339798c0,4.705109-2.449203,8.8125-6.128906,11.188507h74.956116
		C235.074188,241.279297,232.622101,237.171906,232.622101,232.466797z"/>
	<polygon fill="none" points="151.439896,134.218704 129.981903,146.944809 149.248993,159.505402 153.650391,159.505402 
		172.9077,146.954605 	"/>
	<path fill="none" d="M262.609406,232.466797c0-0.123093,0.032196-0.226593,0.032196-0.339798h-3.397522
		c0,0.113205,0.033203,0.216705,0.033203,0.339798c0,4.705109-2.452087,8.8125-6.128891,11.188507h15.588913
		C265.060486,241.279297,262.609406,237.171906,262.609406,232.466797z"/>
</g>
</svg>
