<svg class="svgOrigin" xmlns="http://www.w3.org/2000/svg" width="400" height="400" x="0px" y="0px" viewBox="0 0 400 400" enable-background="new 0 0 400 400">
<g>
	<path fill="#0334A6" d="M61.2612,370.915009c0,14.419983,11.803299,26.22757,26.2276,26.22757h225.021881
		c14.428802,0,26.2276-11.807587,26.2276-26.22757V29.085409c0-14.424299-11.798798-26.227999-26.2276-26.227999H87.4888
		c-14.424301,0-26.2276,11.803699-26.2276,26.227999V370.915009z"/>
	<path fill="none" stroke="#FFFFFF" stroke-width="4.3713" d="M312.510681,390.577148H87.484901
		c-10.838898,0-19.662598-8.819336-19.662598-19.66214V29.08111c0-10.8428,8.8237-19.6665,19.662598-19.6665h225.025787
		c10.851624,0,19.670898,8.8237,19.670898,19.6665v341.833893C332.18158,381.757813,323.362305,390.577148,312.510681,390.577148
		L312.510681,390.577148z"/>
	<path fill="#FFFFFF" d="M298.816406,376.131805H101.174797c-9.519501,0-17.267593-7.751892-17.267593-17.271393V41.136208
		c0-9.523899,7.748093-17.271898,17.267593-17.271898h197.641602c9.536072,0,17.280273,7.747999,17.280273,17.271898v317.724213
		C316.09668,368.379913,308.352478,376.131805,298.816406,376.131805L298.816406,376.131805z"/>
	<path fill="#FF0000" d="M303.963898,127.716805c0,54.794899-44.413116,99.209999-99.208008,99.209999
		c-54.796387,0-99.21389-44.4151-99.21389-99.209999s44.417503-99.211899,99.21389-99.211899
		C259.550781,28.50491,303.963898,72.921906,303.963898,127.716805z"/>
	<path fill="#FFFFFF" d="M276.301788,127.716805c0-39.512199-32.033188-71.545898-71.545898-71.545898
		c-16.744202,0-32.108002,5.797398-44.295486,15.432087l105.22908,93.461914
		C272.375,154.183609,276.301788,141.424301,276.301788,127.716805z"/>
	<path fill="#FFFFFF" d="M133.208496,127.716805c0,39.512703,32.033203,71.545906,71.547394,71.545906
		c16.324203,0,31.316406-5.527802,43.354507-14.731506l-104.895996-93.1679
		C136.8965,102.026909,133.208496,114.428207,133.208496,127.716805z"/>
</g>
</svg>
