<svg class="svgOrigin" xmlns="http://www.w3.org/2000/svg" width="400" height="400" x="0px" y="0px" viewBox="0 0 400 400" enable-background="new 0 0 400 400">
<g>
	
		<rect x="61.171597" y="61.171604" transform="matrix(0.707107 -0.707107 0.707107 0.707107 -82.842712 199.999985)" width="277.656799" height="277.656799"/>
	<polygon fill="none" stroke="#FFD113" stroke-width="3.84133" points="10.9043,200 200,10.90431 389.095703,200 200,389.095703 
		10.9043,200 	"/>
	<g>
		<path fill="#FFD113" d="M53.124001,221.727509c-11.954102-11.954102-11.954102-31.510696,0-43.4599L178.267593,53.121609
			c11.954102-11.951698,31.505798-11.951698,43.4599,0l125.148514,125.145996c11.949188,11.949203,11.949188,31.505798,0,43.4599
			L221.727493,346.876007c-11.954102,11.949188-31.505798,11.949188-43.4599,0L53.124001,221.727509z"/>
	</g>
	<polygon points="278.296906,144.911102 253.798798,120.412605 200,174.210907 146.201202,120.412605 121.702599,144.911102 
		181.248489,204.457001 181.248489,281.333008 218.751999,281.333008 218.751999,204.457001 	"/>
</g>
</svg>
