<svg class="svgOrigin" xmlns="http://www.w3.org/2000/svg" width="400" height="400" x="0px" y="0px" viewBox="0 0 400 400" enable-background="new 0 0 400 400">
<g>
	<circle fill="#0334A6" cx="200" cy="200" r="196.875"/>
	<circle fill="none" stroke="#FFFFFF" stroke-width="5.625" cx="200" cy="200" r="188.4375"/>
	<path fill="#FFFFFF" d="M223.048798,134.285202h-65.019501c10.393097-12.414597,22.145996-26.712898,27.227005-33.826691
		c10.052292-14.090302-8.041901-24.477509-17.772903-19.110802c-8.058609,4.443802-110.418503,68.137199-110.418503,68.137199
		s-8.629398,5.350098-8.629398,7.306091c0,1.955109,8.629398,7.300308,8.629398,7.300308s102.359894,63.709503,110.418503,68.147995
		c9.731003,5.361298,27.825195-5.031311,17.772903-19.116302c-5.081009-7.119095-16.833908-21.417892-27.227005-33.826599
		l65.019501-0.0112c29.520493,0.049805,53.415985,23.950211,53.470703,53.4814v83.353485h45v-83.353485
		C321.508789,178.36821,277.43158,134.296402,223.048798,134.285202z"/>
</g>
</svg>
