<svg class="svgOrigin" xmlns="http://www.w3.org/2000/svg" width="400" height="400" x="0px" y="0px" viewBox="0 0 400 400" enable-background="new 0 0 400 400">
<g>
	
		<rect x="60.465988" y="60.468948" transform="matrix(0.707097 -0.707116 0.707116 0.707097 -82.845207 200.005692)" width="279.069946" height="279.069946"/>
	<polygon fill="none" stroke="#FFD113" stroke-width="3.86086" points="200.002396,9.947309 390.05658,200.003906 
		200.002396,390.055664 9.9458,200.003906 200.002396,9.947309 	"/>
	<g>
		<path fill="#FFD113" d="M178.161591,52.38131c12.012711-12.015099,31.671402-12.015099,43.686096,0l125.779327,125.779289
			c12.014587,12.015213,12.014587,31.671402,0,43.681198l-125.779327,125.78421
			c-12.014694,12.014587-31.673386,12.014587-43.686096,0L52.377399,221.841797
			c-12.012699-12.009796-12.012699-31.665985,0-43.681198L178.161591,52.38131z"/>
	</g>
	<polygon points="124.725594,218.076202 199.057098,218.076202 199.057098,276.209991 240.759796,276.209991 240.759796,125.737305 
		199.057098,125.737305 199.057098,181.940903 124.725594,181.940903 	"/>
	<polygon points="124.725594,218.076202 199.057098,218.076202 199.057098,276.209991 240.759796,276.209991 240.759796,125.737305 
		199.057098,125.737305 199.057098,181.940903 124.725594,181.940903 	"/>
</g>
</svg>
