<svg class="svgOrigin" xmlns="http://www.w3.org/2000/svg" width="400" height="400" x="0px" y="0px" viewBox="0 0 400 400" enable-background="new 0 0 400 400">
<g>
	
		<rect x="61.170311" y="61.168743" transform="matrix(0.70712 -0.707094 0.707094 0.70712 -82.841606 199.994278)" width="277.659363" height="277.659363"/>
	<polygon fill="none" stroke="#FFD113" stroke-width="3.84133" points="199.995102,389.094696 10.9043,199.996613 
		199.995102,10.90331 389.09079,199.996613 199.995102,389.094696 	"/>
	<g>
		<path fill="#FFD113" d="M221.727493,346.879913c-11.949203,11.944275-31.505798,11.944275-43.4599,0L53.124001,221.726608
			c-11.954102-11.944397-11.954102-31.505905,0-43.457611L178.267593,53.120609c11.954102-11.951702,31.510696-11.951702,43.4599,0
			l125.148514,125.148392c11.954071,11.951706,11.954071,31.513214,0,43.457611L221.727493,346.879913z"/>
	</g>
	<path d="M240.558594,216.424805c-11.633804-9.933594-25.238297-14.717804-35.716797-19.143997
		c-10.286102-4.414108-7.0728-15.968307-3.181595-21.044998c1.385696-1.897903,2.830994-3.99411,4.271393-6.319809
		c5.626999-9.05809,10.223694-21.857391,10.128906-38.190399c0-1.84819,0-3.974091-0.004807-6.202194
		c0.014603-2.621101,1.140594-4.556602,4.591797-2.596199c0.009705,0.004898,9.637695,5.469292,12.303696,6.982506
		c7.738312,4.393997,9.223602-2.04541,6.833008-5.739304c-3.796906-5.869606-22.108398-36.627899-31.541-50.172409
		c-2.741196-3.933998-5.077194-5.25679-7.547897-5.25679s-4.806595,1.322792-7.547806,5.25679
		c-9.435593,13.54451-27.747101,44.302803-31.543488,50.172409c-2.39061,3.693893-0.905304,10.133301,6.834991,5.739304
		c2.668396-1.515717,12.296799-6.982506,12.296799-6.982506c3.468796-1.970703,4.591309-0.007301,4.591309,2.633301
		c0,2.215897,0,4.326698,0,6.165092c-0.2724,14.844711-4.038513,20.234406-9.297806,27.499512
		c-2.690903,3.563492-6.054703,7.274887-9.376007,12.48439c-3.288589,5.101501-6.314392,12.389099-6.242188,20.624496
		c-0.082504,6.619598,2.795898,12.957001,6.347198,17.058609c6.317398,7.262695,13.435089,10.462891,20.447296,13.744095
		c10.5112,4.631897,21.612793,8.6035,28.774902,13.235397c3.580994,2.260696,6.00679,4.5215,7.307602,6.401306
		c1.275391,1.960999,1.84079,3.391586,1.905289,6.322296c-0.239288,4.622101-0.6651,4.732407-2.350601,6.932587
		c-2.491196,3.301819-11.694397,7.953125-21.40239,18.106506c-9.818298,10.333893-17.273392,27.029297-17.220703,50.737305
		c0,0.59079,0,2.281189,0,2.281189h30.725601c0,0,0-1.690399,0-2.161102c0.115204-12.183594,2.310593-19.266602,4.79689-23.988281
		c3.701202-7.001892,9.038101-10.453094,17.315399-16.675812c4.006912-3.100586,8.763702-6.982391,12.6651-12.99408
		c3.941406-5.972717,6.281219-13.884796,6.207001-22.238312C256.11908,235.2314,248.926788,223.457001,240.558594,216.424805z"/>
</g>
</svg>
