<svg class="svgOrigin" xmlns="http://www.w3.org/2000/svg" width="400" height="400" x="0px" y="0px" viewBox="0 0 400 400" enable-background="new 0 0 400 400">
<g>
	
		<rect x="60.169037" y="60.16993" transform="matrix(0.707111 -0.707102 0.707102 0.707111 -82.843338 199.998535)" width="279.661926" height="279.661926"/>
	<polygon fill="none" stroke="#FFD113" stroke-width="3.7312" points="199.995102,390.46582 9.53857,200.001511 199.995102,9.54 
		390.457001,200.001511 199.995102,390.46582 	"/>
	<path fill="#FFD113" d="M221.88179,347.935486c-12.034088,12.039124-31.729492,12.039124-43.768494,0L52.063499,221.89061
		c-12.039101-12.039001-12.039101-31.736801,0-43.771011L178.113297,52.064907c12.039001-12.0341,31.734406-12.0341,43.768494,0
		l126.054703,126.054688c12.039093,12.03421,12.039093,31.73201,0,43.771011L221.88179,347.935486z"/>
	<path d="M269.989288,175.894501c-3.537201,1.175812-17.106491,5.003906-19.170898,5.300308
		c-2.059601,0.3013-2.65239-2.064911-2.65239-6.782196c0-4.7173-3.537109-13.268112-5.898407-15.62941
		s-1.481506-17.402298-2.069397-20.055206c-0.587799-2.652786,6.5-7.676193,8.565491-7.676193
		c2.059509,0,5.304703-5.606499,6.189407-8.846695c0.883804-3.245598-6.194305-3.250504-8.259705-2.361404
		c-2.059601,0.884293-4.129898-2.361298-6.782303-2.949196c-2.652298-0.587898-10.027298,0.587898-11.5,0
		c-1.476486-0.587898-4.736298-4.119598-7.087891-4.124512c0,0-0.359299,0.04351-0.855408,0.107002
		c-0.135788-2.113289-0.330093-5.149895-0.330093-5.650391c0-0.767609,2.006805-5.387703,3.391602-7.078697
		c1.388702-1.69091,8.77829-5.6987,10.93071-6.4711c2.157181-0.772507,5.548782-6.316002,6.933594-10.168503
		c1.388596-3.848099-2.619202-2.919899-2.929703-1.841309c-0.306702,1.078606-2.924805,3.692406-5.082108,3.692406
		c-2.157196,0-1.996994-6.160698-1.846603-8.006897c0.156204-1.846199-2.000992-1.233803-2.000992,0
		c0,1.233902-2.619202,7.083488-3.542007,7.083488c-0.922897,0-3.080093-1.850998-4.620087-3.235786
		c-1.5401-1.379402-2.307602,0.772499-2.307602,2.308098c0,1.540001,0.612289,10.012695,0.612289,11.8638
		c0,1.850998-2.15239,4.464798-3.541992,4.464798c-1.389694,0-4.309601-4.775398-4.309601-7.394501
		c0-2.618195-3.390594-5.693901-3.390594,1.234406c0,6.927696,7.238297,12.782188,7.393494,14.166893
		c0.1026,0.9571,0.427795,3.920502,0.622101,5.693901c-1.958008,0.398392-3.911102,0.927704-4.566406,1.588394
		c-1.472687,1.476997,5.018509,5.903305,5.018509,8.555611c0,2.652893,0,17.990799,0,23.5923
		c0,5.601593-5.013611,17.703598-7.375,20.647995c-2.3564,2.9487-12.976501,10.328598-16.809998,13.569305
		c-3.837906,3.240189-12.097198,7.661591-13.569412,9.138687c-1.472092,1.481415-15.920792-2.361298-25.953094,10.3237
		c0,0-12.087402-2.652786-11.207993-13.564392c0,0-4.72261-3.833008-7.375,2.064896
		c-2.652802,5.89801,3.536591,12.684601,13.569397,14.75c0,0-4.421402,17.987305,5.897903,26.830109
		c0,0-3.833511,7.977493-7.375,12.096695c-3.542007,4.129791-10.022903,13.866196-10.022903,13.866196
		s1.472092,18.879913,1.472092,22.125c0,3.245117-6.189392,5.8974-6.782196,7.375
		c-0.592804,1.476501-3.245087,10.610291,4.12941,3.537109c7.370087-7.074219,9.143494-10.02832,9.143494-14.157196
		c0-4.129913,0.583099-14.157318,2.356506-17.694397c1.772888-3.537109,13.56929-13.866211,15.634293-14.459015
		c2.059494-0.592697,15.920395-9.725601,16.513092-11.203094c0.592804-1.476608,2.94931-9.143509,2.94931-9.143509
		s12.9814-5.897491,14.453598-8.559601c0,0,13.559601-2.944397,21.230499-6.481491
		c7.671799-3.539001,10.324203-1.175705,15.342697-4.126907c5.013702-2.954102,19.170898-10.62059,21.824203-13.273499
		c2.65239-2.657196,7.374985-1.476501,7.374985,0c0,1.472198,1.174805,9.430206-0.884674,11.5
		c-2.064514,2.064499-3.837921,6.49321-5.606506,7.669006c-1.763611,1.175797-0.592712,8.248993,3.245087,4.712891
		c3.834015-3.537094,8.550812-7.957993,9.440491-10.020493c0.88382-2.070297,0-13.278305,0-15.634293
		c0-2.356415,3.833008-4.129913,3.833008-7.078613C272.350586,179.134811,273.526398,174.718704,269.989288,175.894501z"/>
</g>
</svg>
