<svg class="svgOrigin" xmlns="http://www.w3.org/2000/svg" width="400" height="400" x="0px" y="0px" viewBox="0 0 400 400" enable-background="new 0 0 400 400">
<g>
	<path fill="#0334A6" d="M46.2715,398.152344c-18.7295,0-26.277399-11.239258-26.277399-23.221649c0-8.1026,0-69.560608,0-69.560608
		s0.383799-24.183594,5.3633-32.138672c5.060598-8.083008,140.476089-237.201599,151.259796-254.884705
		C187.401398,0.66411,200,1.86521,200,1.86521s12.598587-1.2011,23.382797,16.481501
		c10.78421,17.683098,146.199203,246.801697,151.259781,254.884705c4.979523,7.955078,5.363312,32.138672,5.363312,32.138672
		s0,61.458008,0,69.560608c0,11.982391-7.547882,23.221649-26.277405,23.221649
		C334.997986,398.152344,65.001503,398.152344,46.2715,398.152344z"/>
	<path fill="none" stroke="#FFFFFF" stroke-width="2.42592" d="M353.733398,386.032196H46.2715
		c-9.523499,0-14.147999-3.633789-14.147999-11.101501V305.375c0.175301-10.461884,1.867199-22.813507,3.534698-25.727509
		c2.5112-4.018585,33.806599-56.853592,70.039093-118.036682C142.934097,98.741211,181.440903,33.73391,186.9702,24.66991
		c5.619202-9.222601,10.982895-10.497001,12.26709-10.6631l1.639206,0.2793l0.189896-0.2295
		c1.625,0.300799,6.68071,1.9522,11.967804,10.6133c5.530304,9.063999,44.032211,74.071304,81.273392,136.940903
		c36.232422,61.18309,67.527405,114.018097,70.057617,118.055176c1.649384,2.895508,3.340881,15.247131,3.515686,25.90332v69.361389
		C367.88089,382.398407,363.256805,386.032196,353.733398,386.032196L353.733398,386.032196z"/>
	<g>
		<path fill="#FFFFFF" d="M293.68158,266.276398c0-2.667999,2.184601-4.8526,4.8526-4.8526h25.798828
			c2.667999,0,6.216797,1.706116,7.883789,3.791016l2.952087,3.695404c1.667999,2.079987,3.032318,5.970673,3.032318,8.637695
			v0.867096c0,2.667999-2.183624,4.851593-4.851624,4.851593h-25.396484c-2.666992,0-6.24408-1.676788-7.950195-3.733398
			l-3.221619-3.876007c-1.706085-2.055603-3.099701-5.917908-3.099701-8.5849V266.276398z"/>
	</g>
	<g>
		<path fill="#FFFFFF" d="M50.962399,360.43161c-2.6675,0-4.851597-1.819305-4.851597-4.036102
			c0-2.227509,1.198799-5.866211,2.6675-8.092804l5.055698-7.67569c1.4687-2.2276,4.851501-4.055725,7.519001-4.055725h277.293488
			c2.667999,0,6.050812,1.828125,7.519501,4.055725l5.055695,7.67569c1.468719,2.226593,2.667908,5.865295,2.667908,8.092804
			c0,2.216797-2.184509,4.036102-4.852509,4.036102H50.962399z"/>
	</g>
	<g>
		<path fill="#FFFFFF" d="M106.317894,266.276398c0-2.667999-2.184097-4.8526-4.851593-4.8526H75.667
			c-2.667503,0-6.216301,1.706116-7.8843,3.791016l-2.951599,3.695404c-1.667999,2.079987-3.032799,5.970673-3.032799,8.637695
			v0.867096c0,2.667999,2.184597,4.851593,4.852097,4.851593h25.3965c2.667503,0,6.244598-1.676788,7.950203-3.733398
			l3.222099-3.876007c1.705597-2.055603,3.098694-5.917908,3.098694-8.5849V266.276398z"/>
	</g>
	<path fill="#FFFFFF" d="M179.0625,91.711906c-6.064911,0-16.375,4.245598-19.710907,12.129898
		c-3.335495,7.883804-3.638702,13.9487-0.909698,19.407196c2.729004,5.458,6.368195,10.613304,6.064896,13.6455
		c-0.303192,3.0327-9.097092,5.458496-19.710388,15.465408c-10.6138,10.00679-12.736313,24.259201-13.342804,25.1689
		c-0.6064,0.909698-9.097198,5.155304-11.522903,17.891098c-2.4263,12.738297-4.245598,21.835999-1.819397,24.261703
		c2.425797,2.425797,18.800797,7.27739,18.497604,10.916092c-0.303207,3.639603-5.761703,9.097595-2.729507,12.736298
		c3.0327,3.638702,8.1875,4.548798,4.852005,9.704102c-3.335907,5.155289-16.9814,30.930588-20.620102,35.782211
		c-3.639099,4.851593-4.548798,7.581085-0.910103,11.522491c3.639099,3.942383,13.646004,17.587891,14.858894,18.801697
		c1.212814,1.212891,8.490707,0.302795,6.064911-7.27829c-2.425797-7.581024-6.671402-9.09671-2.729507-14.858398
		c3.942398-5.761719,26.9888-38.208008,27.5952-40.9375c0.606506-2.729507,6.974106-1.819305,9.703598,1.819305
		c2.729004,3.638672,7.884308,10.916992,10.006912,26.988281c2.122498,16.071289,4.245087,32.446289,6.974594,33.356506
		c2.729004,0.910095,16.9814,2.122986,19.407196,2.122986s5.458008-3.639587,1.212906-6.671906
		c-4.245102-3.032196-9.400406-4.548798-9.703598-11.82608c-0.303207-7.277405,1.819794-27.594788,0-33.962891
		c-1.819412-6.368225-6.065002-11.826202-5.458511-15.162109c0.6064-3.335007,5.155304-2.425797,3.639099-7.883804
		c-1.516098-5.459-12.129791-24.259796-12.43309-28.201202c-0.303207-3.942398-0.303207-20.319794,4.24559-19.410095
		c4.548401,0.909607,11.52301,10.9189,17.587509,12.435501c6.065399,1.515594,10.916901,2.7285,12.433502,4.548798
		c1.515701,1.819397,2.425797,6.973709,2.425797,11.219803c0,4.245102-2.123001,11.219696-0.303696,17.284103
		c1.819397,6.065491,6.065399,14.251984,6.065399,17.285187c0,3.032196-1.516602,8.1875-1.516602,10.309601
		c0,2.123016,6.064499,3.032196,5.458099,5.155212c-0.606506,2.123108-3.941498,14.555695-6.670898,18.194397
		c-2.729492,3.638611-8.491302,11.219696-3.638702,16.072205c4.851501,4.851593,10.00679,11.522491,12.432602,12.735382
		c2.425797,1.212921,3.942398-4.851593,2.729492-6.368195c-1.212891-1.515594-5.761703-6.670898-2.729492-9.400391
		c3.032196-2.728516,9.096695-12.735291,10.613297-15.162109c1.516602-2.425812,2.123001-13.948181,7.884705-13.645508
		c5.760788,0.303711,9.400406,6.671906,10.916092,15.46582c1.516602,8.793976,4.548798,16.375,4.548798,21.832977
		c0,5.458099,3.638702,6.670898,7.580994,6.670898c3.942413,0,10.309601,0.910217,10.613312-3.63858
		c0.302795-4.54892-11.523407-5.761719-10.006805-12.73642c1.515594-6.974579,3.335907-15.464783,2.729492-20.01358
		c-0.607391-4.548889-1.820282-10.309601-0.910187-11.523499c0.910187-1.212921,9.704102-4.851501,6.974609-9.400391
		c-2.729523-4.547821-6.671814-11.826111-6.671814-15.161118c0-3.335892-3.638702-7.27829-2.425812-10.614197
		c1.212921-3.334991,11.827118,2.426697,15.768524,3.033203c3.942383,0.6064,9.400391,3.638596,13.0401,3.638596
		c3.63858,0,6.064392-3.942398,0.606384-7.884689c-5.458984-3.941406-22.136688-13.341812-23.65329-20.013702
		c-1.515594-6.670898-5.155304-14.861298-9.703094-18.196808c-4.54892-3.335403-6.671906-6.064392-6.671906-8.7939
		c0-2.728989,6.065399,0.303207,10.006805-5.1548c3.942383-5.458496,3.335999-16.071793,3.335999-18.194397
		c0-2.122498,4.245087-4.245605,4.245087-7.277802s-6.064484-13.645996-13.039093-14.252396
		c-6.974609-0.606506-8.1875-0.606506-10.310486-0.606506c-2.122101,0,3.335876-9.703598-0.90921-10.00679
		c-4.245102-0.303207-5.761703,7.884293-8.491211,7.884293c-2.7285,0-6.367188-2.122589-8.793991-3.33551
		c-2.42569-1.213379-6.974609,3.032211-4.547806,5.154816c2.425797,2.122604,2.425797,2.122604,2.425797,2.122604
		s6.974609,0.6064,4.548813,4.24559c-2.426804,3.638596-2.426804,3.638596-2.426804,3.638596s-4.547806,3.639206-4.547806,12.129913
		c0,8.490692,10.309601,18.800797,10.309601,21.226593s-5.761795,5.458496-7.883804,5.458496
		c-2.123093,0-10.310593,8.490204-13.039093,8.490204c-2.729492,0-23.653305-11.522903-26.685501-23.349106
		c-3.032303-11.826187-5.761795-24.259293-8.490799-27.291489c-2.729004-3.032211-8.1875-7.277802-8.1875-10.310104
		c0-3.0327,13.645996-6.671402,13.949295-11.523407c0.303207-4.851593,1.516113-8.186989,3.335403-9.70359
		c1.819305-1.516106,10.310608-2.425804,10.310608-6.367699c0-3.942413-8.794006-2.7295-11.523499-6.67141
		C196.953598,102.93161,192.4048,91.711906,179.0625,91.711906z"/>
	<path fill="#0334A6" d="M236.990189,229.110397c-3.377899,0.374008-6.789001,4.245102-6.789001,6.368103
		c0,2.122101,7.642609,3.397507,7.642609,1.274399C237.843796,234.629898,240.809601,228.683609,236.990189,229.110397z"/>
	<path fill="#0334A6" d="M151.647491,179.854996c-2.369202-0.947296-3.823792,4.243103-5.520096,5.093704
		c-1.696198,0.850601-1.274399,3.397003,2.971207,3.397003C153.343796,188.345703,155.893097,181.553711,151.647491,179.854996z"/>
</g>
</svg>
