<svg class="svgOrigin" xmlns="http://www.w3.org/2000/svg" width="400" height="400" x="0px" y="0px" viewBox="0 0 400 400" enable-background="new 0 0 400 400">
<g>
	
		<rect x="61.171597" y="61.171604" transform="matrix(0.707107 -0.707107 0.707107 0.707107 -82.842712 200)" width="277.656799" height="277.656799"/>
	<polygon fill="none" stroke="#FFD113" stroke-width="3.84133" points="199.995102,389.09079 10.9043,200 199.995102,10.90431 
		389.09079,200 199.995102,389.09079 	"/>
	<path fill="#FFD113" d="M221.727493,346.876007c-11.949203,11.954102-31.505798,11.954102-43.4599,0l-125.143593-125.1436
		c-11.954102-11.954102-11.954102-31.510696,0-43.4599L178.267593,53.124001c11.954102-11.95409,31.510696-11.95409,43.4599,0
		l125.148514,125.148506c11.954071,11.949203,11.954071,31.505798,0,43.4599L221.727493,346.876007z"/>
	<polygon points="301.75,251.012711 301.75,156.259811 91.757301,251.012711 	"/>
	<path fill="#FFFFFF" d="M263.546906,195.033203c0,0-1.220703-1.115204-3.121124-1.020493
		c-1.900391,0.100098-29.535187,1.510696-29.535187,1.510696l3.761703,8.332993l-67.974106,30.670898
		c-1.935501,0.870209-2.795898,3.150406-1.925293,5.0811c0.640198,1.420898,2.040604,2.260712,3.50589,2.260712
		c0.530304,0,1.065399-0.109299,1.575714-0.339813l67.973083-30.670898l3.766602,8.337906
		c0,0,19.546906-20.026398,20.892609-21.367203C263.8125,196.483902,263.546906,195.033203,263.546906,195.033203z"/>
	<path d="M137.393097,196.408707L123.9785,175.851608c-1.745605-2.785706-2.590805-5.932205-2.590805-9.007904l0,0
		c0-5.7724,2.931099-11.438904,8.208008-14.735291l0,0c2.875992-1.800812,6.106888-2.68071,9.272995-2.68071l0,0
		c5.691803-0.010193,11.2939,2.820801,14.495102,7.9375l0,0l13.439896,20.632401
		c1.745605,2.785599,2.595703,5.921799,2.580597,8.998001l0,0c0.015106,5.781693-2.925797,11.428696-8.192902,14.729996l0,0
		c-2.875992,1.810501-6.106888,2.680603-9.272888,2.680603l0,0C146.216293,204.417007,140.614304,201.575211,137.393097,196.408707
		L137.393097,196.408707z M151.918503,196.723602c1.770493,0,3.556091-0.479904,5.181595-1.500504l0,0
		c2.985794-1.860291,4.601593-5.041489,4.611801-8.227493l0,0c-0.010208-1.700699-0.455597-3.391098-1.380798-4.866699l0,0
		l-13.439499-20.622101c-1.780807-2.841293-4.826706-4.391602-8.022903-4.40181l0,0c-1.770599,0-3.556198,0.490204-5.196808,1.51561
		l0,0c-2.980988,1.856003-4.596695,5.022003-4.596695,8.223099l0,0c0,1.690506,0.455597,3.380905,1.375504,4.876495l0,0
		l13.455093,20.622101C145.666,195.158203,148.712402,196.723602,151.918503,196.723602L151.918503,196.723602z"/>
	<path d="M191.216797,193.0728c-1.950699-0.845291-2.8311-3.116287-1.985397-5.05719l0,0L218.791,120.36721
		c0.850601-1.940407,3.116196-2.830605,5.0625-1.985405l0,0c1.940399,0.860405,2.8311,3.116196,1.975601,5.0616l0,0
		L196.2686,191.097198c-0.629898,1.440399-2.035706,2.300705-3.511307,2.300705l0,0
		C192.242203,193.397903,191.722198,193.292511,191.216797,193.0728L191.216797,193.0728z"/>
	<path d="M213.354492,161.701706c0.009796-7.777893,6.302704-14.074707,14.075195-14.074707l0,0
		c7.777313,0,14.064407,6.296814,14.074203,14.074707l0,0c-0.009796,7.772903-6.29689,14.075195-14.074203,14.075195l0,0
		C219.657196,175.776901,213.364288,169.474609,213.354492,161.701706L213.354492,161.701706z M221.042007,161.701706
		c0,3.526291,2.861282,6.382294,6.38768,6.3974l0,0c3.531204-0.015106,6.376907-2.871109,6.386703-6.3974l0,0
		c-0.009796-3.531296-2.855499-6.387207-6.386703-6.387207l0,0C223.90329,155.314499,221.042007,158.17041,221.042007,161.701706
		L221.042007,161.701706z"/>
	<path d="M176.406693,145.215805c0-7.7724,6.292496-14.074692,14.074707-14.074692l0,0
		c7.768097,0,14.060608,6.302292,14.070389,14.074692l0,0c-0.009781,7.768097-6.302292,14.070297-14.070389,14.070297l0,0
		C182.699188,159.286102,176.406693,152.983902,176.406693,145.215805L176.406693,145.215805z M184.089401,145.215805
		c0.010193,3.526398,2.866196,6.377502,6.391998,6.387192l0,0c3.526398-0.009689,6.377502-2.860794,6.377502-6.387192l0,0
		c0-3.525894-2.851105-6.381805-6.377502-6.392105l0,0C186.955597,138.834,184.099594,141.689911,184.089401,145.215805
		L184.089401,145.215805z"/>
	<path d="M124.118698,214.860397L98.915001,175.72171c-1.150398-1.785706-0.630302-4.156799,1.155296-5.307098l0,0
		c1.7808-1.145111,4.161598-0.640213,5.311996,1.150299l0,0l25.193909,39.134293
		c1.150391,1.780304,0.640091,4.161194-1.150406,5.311508l0,0c-0.6353,0.410187-1.355499,0.610397-2.065903,0.610397l0,0
		C126.0942,216.621109,124.853996,215.995102,124.118698,214.860397L124.118698,214.860397z"/>
</g>
</svg>
