<svg class="svgOrigin" xmlns="http://www.w3.org/2000/svg" width="400" height="400" x="0px" y="0px" viewBox="0 0 400 400" enable-background="new 0 0 400 400">
<g>
	
		<rect x="61.170311" y="61.168743" transform="matrix(0.70712 -0.707094 0.707094 0.70712 -82.841606 199.994278)" width="277.659363" height="277.659363"/>
	<polygon fill="none" stroke="#FFD113" stroke-width="3.84133" points="199.995102,389.094696 10.9043,199.996613 
		199.995102,10.90331 389.09079,199.996613 199.995102,389.094696 	"/>
	<g>
		<path fill="#FFD113" d="M221.727493,346.879913c-11.949203,11.944275-31.505798,11.944275-43.4599,0L53.124001,221.726608
			c-11.954102-11.944397-11.954102-31.50351,0-43.457611L178.267593,53.120609c11.954102-11.951702,31.510696-11.951702,43.4599,0
			l125.148514,125.148392c11.954071,11.954102,11.954071,31.513214,0,43.457611L221.727493,346.879913z"/>
	</g>
	<path d="M294.698181,224.387711h-8.193298c-0.059601,0-0.110382,0.030289-0.169891,0.030289c0-15.416,0-38.836487,0-40.9673
		c0-3.201187-3.841797-0.960495-3.841797-8.962891c0-8.002899,3.201111-7.682602,6.722595-7.682602
		c3.521515,0,8.002991,0,9.603516,0c1.600586,0,2.240295-8.963394,0-8.963394c-2.241211,0-57.299805,0-61.141617,0
		c-3.84079,0-3.520493,10.883789,0,10.883789c3.5215,0,4.351608,0,6.272507,0s1.920898,4.161606,1.920898,7.362808
		s0.639603,8.962891-2.880905,8.962891c0,0-4.912094,0-12.349594,0v-13.014694h-13.394501V185.0513
		c-4.421906,0-9.132797,0-13.884796,0c-5.231903-8.132797-12.15181-15.580093-20.034607-15.580093
		c-17.383301,0-20.239288,15.580093-20.239288,15.580093c-2.516113,0-4.116699,0-4.476608,0
		c-2.881302,0-3.521393-2.240799-3.521393-6.082092c0-3.841309,0-6.082001,0-8.322708
		c3.521393,0,7.042389-4.161591,1.920898-4.161591h-4.48201c0,0-3.520996-8.003006-3.520996-11.844299
		c0-3.841309,3.841309-5.44191,8.003006-5.44191c4.161102,0,11.843704-1.920395,12.164001-6.082001
		c0,0,13.124496-0.960495,13.124496-14.084991c0,0,4.161591-1.600098,4.801804-4.4814c0,0,15.685501-2.2407,18.886688-19.206604
		c3.201202-16.965797-8.002899-22.407707-16.00589-22.407707c-10.243607,0-21.127396,4.801811-22.727997,20.807213
		c0,0-19.206512,0.320297-16.005402,24.328598c0,0-17.926208,6.401794-8.643005,22.087402c0,0-3.201202,8.963394,0.960403,16.005783
		c0,0-3.841309,0-5.44191,0c-1.600586,0-0.320297,4.801315,0.640213,4.801315c0.960388,0,0.960388,4.801804,0.960388,8.323303
		c0,3.520889-1.920898,6.082001-6.722092,6.082001c-4.801804,0-9.923904,0-14.405304,0
		c-4.481499,0-3.201195,8.00238-0.319801,8.00238c2.880806,0,1.280205,6.08252-0.960495,6.08252
		s-7.682602,16.008286,0.640099,22.729996v5.442398v1.410202h-5.707001c-2.815903,0-5.121597,1.990189-5.121597,4.421799
		c0,2.420898,2.305695,4.411194,5.121597,4.411194h5.711899h2.481003h6.682098c0,8.973602,9.826202,16.255798,21.9478,16.255798
		c12.121506,0,21.947708-7.282196,21.947708-16.255798h3.188492c0,8.973602,9.826202,16.255798,21.9478,16.255798
		c12.121994,0,21.945297-7.282196,21.945297-16.255798h6.841797c0,8.973602,9.829102,16.255798,21.948196,16.255798
		c12.124008,0,21.947311-7.282196,21.947311-16.255798h17.496094c0,0,0-0.030304,0-0.0401
		c0.059509,0.009796,0.110291,0.0401,0.169891,0.0401h8.193298c2.815521,0,5.121124-2.310593,5.121124-5.122101v-3.241196
		C299.819305,226.688507,297.513702,224.387711,294.698181,224.387711z M273.970703,180.309601
		c0,2.716309-2.161102,4.911606-4.841797,5.06691v10.328598c0,2.815887-1.990204,5.121597-4.421906,5.121597
		c-2.430603,0-4.420898-2.30571-4.420898-5.121597v-10.328598c-2.68161-0.155304-4.841812-2.350601-4.841812-5.06691v-6.001999
		c0-2.815903,2.30571-5.121597,5.122116-5.121597h8.282196c2.816406,0,5.122101,2.305695,5.122101,5.121597V180.309601z"/>
</g>
</svg>
