<svg class="svgOrigin" xmlns="http://www.w3.org/2000/svg" width="400" height="400" x="0px" y="0px" viewBox="0 0 400 400" enable-background="new 0 0 400 400">
<g>
	
		<rect x="61.878704" y="61.881161" transform="matrix(0.707098 -0.707116 0.707116 0.707098 -82.844452 200.004272)" width="276.242584" height="276.242584"/>
	<polygon fill="none" stroke="#FFD113" stroke-width="3.82177" points="199.995102,388.132813 11.8677,200.004898 
		199.995102,11.87011 388.127014,200.004898 199.995102,388.132813 	"/>
	<g>
		<path fill="#FFD113" d="M221.617188,346.127899c-11.888687,11.893616-31.345688,11.893616-43.239288,0L53.872101,221.622101
			c-11.893101-11.8936-11.893101-31.350601,0-43.2388L178.377899,53.872108c11.8936-11.890701,31.350601-11.890701,43.239288,0
			l124.510712,124.511192c11.893585,11.888199,11.893585,31.3452,0,43.2388L221.617188,346.127899z"/>
	</g>
	<path d="M192.421402,105.874001c0,0,0,31.419899,0,40.447304c0,9.026794-8.574203,30.066406-24.050308,40.919403
		L103.7939,232.474609l13.9039,25.264709l61.70549-43.223709c0.024902-0.014603,0.039612-0.024399,0.064499-0.040009
		c10.415512-7.2901,12.580109-3.075195,12.953613,3.483398v67.269516h28.837387V105.874001H192.421402z"/>
</g>
</svg>
