<svg class="svgOrigin" xmlns="http://www.w3.org/2000/svg" width="400" height="400" x="0px" y="0px" viewBox="0 0 400 400" enable-background="new 0 0 400 400">
<g>
	<polygon points="199.998001,396.334961 396.334015,199.996613 199.998001,3.66551 3.66699,199.996613 	"/>
	<polygon fill="none" stroke="#FFD113" stroke-width="3.84129" points="200.002899,389.092804 389.091797,199.996613 
		200.002899,10.90531 10.9097,199.996613 200.002899,389.092804 	"/>
	<g>
		<path fill="#FFD113" d="M178.270493,346.877899c11.949203,11.944397,31.510803,11.944397,43.464905,0l125.141617-125.151291
			c11.954071-11.944397,11.954071-31.505905,0-43.457611L221.735397,53.122108
			c-11.954102-11.951199-31.515701-11.951199-43.464905,0L53.123501,178.268997
			c-11.954102,11.951706-11.954102,31.513214,0,43.457611L178.270493,346.877899z"/>
	</g>
	<path d="M159.439499,216.424805c11.633698-9.933594,25.23819-14.717804,35.716797-19.143997
		c10.2939-4.414108,7.072205-15.967804,3.181107-21.044998c-1.385315-1.897903-2.8311-3.993607-4.2715-6.319305
		c-5.626907-9.058105-10.223114-21.857391-10.128403-38.190399c0-1.84819,0-3.973701,0.005402-6.202194
		c-0.015213-2.620605-1.140701-4.556602-4.591812-2.595703c-0.009796,0.004898-9.638199,5.469299-12.304199,6.982407
		c-7.737289,4.394089-9.22319-2.045906-6.832092-5.739708c3.795898-5.869102,22.107498-36.626999,31.540604-50.171906
		c2.740692-3.933594,5.076599-5.25679,7.547287-5.25679c2.470703,0,4.803711,1.323196,7.547913,5.25679
		c9.443298,13.544907,27.748993,44.302803,31.550797,50.171906c2.39061,3.693802,0.899399,10.133797-6.842804,5.739708
		c-2.661102-1.51561-12.294006-6.982407-12.294006-6.982407c-3.471588-1.970703-4.59169-0.007797-4.59169,2.633301
		c0,2.215797,0,4.326706,0,6.164597c0.270493,14.8452,4.041,20.234299,9.303696,27.499008
		c2.690414,3.563995,6.051697,7.275391,9.373001,12.48439c3.291,5.101501,6.311493,12.389099,6.242203,20.624496
		c0.079102,6.619598-2.801804,12.957001-6.352509,17.058609c-6.3125,7.261703-13.434601,10.462891-20.447281,13.744095
		c-10.507813,4.631897-21.611816,8.6026-28.774414,13.234406c-3.5811,2.260696-6.006897,4.5215-7.307587,6.402298
		c-1.275406,1.960999-1.840408,3.390701-1.905304,6.322296c0.2397,4.621094,0.664993,4.7314,2.350586,6.932587
		c2.490707,3.300812,11.693802,7.952209,21.402313,18.105499c9.823288,10.334015,17.275391,27.029297,17.225586,50.737305
		c0,0.589813,0,2.280304,0,2.280304h-30.729996c0,0,0-1.690491,0-2.160187
		c-0.115189-12.184601-2.310989-19.266602-4.79689-23.988312c-3.701111-7.001892-9.03801-10.453094-17.315903-16.675781
		c-4.006302-3.100525-8.762711-6.982422-12.664001-12.99411c-3.941391-5.97171-6.282303-13.884796-6.207108-22.237305
		C143.879395,235.230499,151.071793,223.457001,159.439499,216.424805z"/>
</g>
</svg>
