<svg class="svgOrigin" xmlns="http://www.w3.org/2000/svg" width="400" height="400" x="0px" y="0px" viewBox="0 0 400 400" enable-background="new 0 0 400 400">
<g>
	
		<rect x="60.876144" y="60.876785" transform="matrix(0.707112 -0.707102 0.707102 0.707112 -82.843163 199.998093)" width="278.247711" height="278.247711"/>
	<polygon fill="none" stroke="#FFD113" stroke-width="3.71234" points="199.994598,389.502899 10.5015,200.001007 
		199.994598,10.50291 389.49408,200.001007 199.994598,389.502899 	"/>
	<path fill="#FFD113" d="M221.770493,347.1875c-11.973602,11.978485-31.56839,11.978485-43.546402,0L52.812,221.779297
		c-11.979-11.977493-11.979-31.576187,0-43.548798L178.224091,52.813c11.978012-11.973591,31.5728-11.973591,43.546402,0
		l125.417984,125.417496c11.977509,11.97261,11.977509,31.571304,0,43.548798L221.770493,347.1875z"/>
	<path d="M215.240189,308.952087c0,8.410217-6.824188,15.23642-15.240189,15.23642s-15.241211-6.826202-15.241211-15.23642
		c0-8.419891,6.825211-15.245972,15.241211-15.245972S215.240189,300.532196,215.240189,308.952087z"/>
	<path d="M223.071289,105.549805C223.071289,118.291,200,275.290009,200,275.290009S176.928696,118.291,176.928696,105.549805
		c0-12.737297,10.329102-23.071808,23.071304-23.071808C212.737289,82.477997,223.071289,92.812508,223.071289,105.549805z"/>
</g>
</svg>
