<svg class="svgOrigin" xmlns="http://www.w3.org/2000/svg" width="400" height="400" x="0px" y="0px" viewBox="0 0 400 400" enable-background="new 0 0 400 400">
<g>
	
		<rect x="61.171597" y="61.171604" transform="matrix(0.707107 -0.707107 0.707107 0.707107 -82.842712 200)" width="277.656799" height="277.656799"/>
	<polygon fill="none" stroke="#FFD113" stroke-width="3.84133" points="389.095703,200 200,10.90431 10.9043,200 200,389.095703 
		389.095703,200 	"/>
	<g>
		<path fill="#FFD113" d="M346.876007,221.727509c11.954071-11.954102,11.954071-31.510696,0-43.4599L221.732391,53.11911
			c-11.954102-11.9492-31.510696-11.9492-43.4599,0L53.124001,178.267609c-11.954102,11.949203-11.954102,31.505798,0,43.4599
			l125.148491,125.148499c11.949203,11.949188,31.505798,11.949188,43.4599,0L346.876007,221.727509z"/>
	</g>
	<path d="M225.664093,126.449707c-8.743195-6.202103-16.840897,4.251495-7.613297,15.505402
		c1.531204,1.865204,3.2314,4.036102,4.987305,6.336899c2.240189,2.980896,0.254898,7.127396-4.84671,7.127396H144.50589v120.941895
		h34.65181V188.7612h38.373596c10.6884,0,7.746994,4.361404,5.511703,7.327698
		c-1.760803,2.305603-3.460999,4.476501-4.992203,6.346603c-9.2276,11.253998-1.129898,21.708099,7.613297,15.505905
		c8.743103-6.202103,56.104492-45.746094,56.104492-45.746094S234.407196,132.651901,225.664093,126.449707z"/>
</g>
</svg>
