<svg class="svgOrigin" xmlns="http://www.w3.org/2000/svg" width="400" height="400" x="0px" y="0px" viewBox="0 0 400 400" enable-background="new 0 0 400 400">
<g>
	<path fill="#0334A6" d="M46.574699,397.761719c-18.6929,0-26.225599-11.216827-26.225599-23.180634
		c0-8.082092,0-69.418976,0-69.418976s0.382799-24.134796,5.353001-32.080109
		c5.050299-8.066406,140.198792-236.729004,150.961487-254.376892C187.4263,1.05711,200,2.25591,200,2.25591
		s12.574188-1.1988,23.336899,16.4492c10.762695,17.64789,145.911087,246.310486,150.960983,254.376892
		c4.969696,7.945313,5.352509,32.080109,5.352509,32.080109s0,61.336884,0,69.418976
		c0,11.963806-7.532196,23.180634-26.225586,23.180634C334.732391,397.761719,65.267601,397.761719,46.574699,397.761719z"/>
	<path fill="#FFFFFF" d="M89.214401,245.234406c-0.8321,1.580994-1.513199,4.1689-1.513199,5.75
		c0,1.582001,2.179199,2.875992,4.8423,2.875992h16.644997c2.663101,0,5.659599-0.7491,6.658195-1.6651
		c0.998505-0.914993,1.815903-3.502899,1.815903-5.75s-2.179199-4.085892-4.8423-4.085892H95.569801
		C92.9067,242.359406,90.046402,243.653305,89.214401,245.234406z"/>
	<path fill="#FFFFFF" d="M311.263702,245.234406c0.832001,1.580994,1.512695,4.1689,1.512695,5.75
		c0,1.582001-2.178711,2.875992-4.841797,2.875992h-16.646515c-2.663086,0-5.65918-0.7491-6.657196-1.6651
		c-0.998108-0.914993-1.815491-3.502899-1.815491-5.75s2.17868-4.085892,4.841797-4.085892h17.251007
		C307.571289,242.359406,310.430695,243.653305,311.263702,245.234406z"/>
	<path fill="#FFFFFF" d="M291.378906,314.906189c-1.498016-1.746979-2.723602-5.151276-2.723602-7.566376
		c0-2.415009,2.178711-4.390625,4.841797-4.390625h23.001892c2.663086,0,6.035187,1.823303,7.494202,4.050812l0.445282,0.679688
		c1.459015,2.227509,2.652313,5.479523,2.652313,7.226501c0,1.747101-2.178711,3.175812-4.841797,3.175812h-23.304688
		C296.281281,318.082001,292.877014,316.65329,291.378906,314.906189z"/>
	<path fill="#FFFFFF" d="M106.015594,314.906189c1.4981-1.746979,2.723701-5.151276,2.723701-7.566376
		c0-2.415009-2.179199-4.390625-4.842293-4.390625H80.8965c-2.663101,0-6.036102,1.823303-7.495102,4.050812l-0.444901,0.679688
		c-1.4589,2.227509-2.652794,5.479523-2.652794,7.226501c0,1.747101,2.179199,3.175812,4.8423,3.175812h23.303696
		C101.112801,318.082001,104.517601,316.65329,106.015594,314.906189z"/>
	<path fill="#FFFFFF" d="M180.294891,73.064911c-17.935989-0.094704-9.939392,9.121597-15.878891,10.039085
		c-2.851501,0.439911-5.944305,5.300812-1.314407,5.272514c7.319809-0.047401,2.217697,7.079094,4.194305,8.6157
		c1.976593,1.537094,1.839401,8.341789-1.674301,11.415497c-3.513199,3.0737-14.498108,5.485397-23.061996,17.349602
		c-8.564011,11.864792-16.035202,20.428696-16.692406,23.941895c-0.6577,3.513702,0,17.350098-2.6343,21.303207
		c-2.633797,3.953201-2.855896,7.466797-1.976601,8.786194c0.879402,1.319305,4.388199,6.591797,4.610901,8.786102
		c0.222198,2.193893,2.638695,8.128403,6.591805,0.879395c3.953094-7.248993,6.1474-13.836395,6.1474-21.085388
		c0-7.249603,9.4478-21.965408,11.64209-23.502014c2.194412-1.537094,5.712402,2.860809,3.295914,12.082001
		c-2.416504,9.220703-5.490204,16.692413-5.490204,20.645508c0,3.953705-0.2173,15.585999,0,17.127991
		c0.217804,1.541504,3.295898,3.958008,0.439896,10.104904c-2.855896,6.147507-29.649399,65.890701-30.306595,68.085007
		c-0.657204,2.194305,14.498505,19.544006,18.6689,20.423798c4.170898,0.879883,1.759293-6.591797,0.440002-9.666016
		c-1.319305-3.073181-5.055206-5.267578-0.222198-12.077087c4.832489-6.809601,28.552292-46.781296,30.528793-49.198303
		c1.976593-2.416,6.587402,3.958008,7.466797,4.175797c0.879395,0.217804,11.424805,23.0625,16.475098,31.848618
		c5.050308,8.786194,12.299805,29.431702,15.813507,29.431702c3.512695,0,21.525391,0.217773,20.645493-1.75882
		s-9.448196-13.614288-12.5215-18.447296c-3.074203-4.833008,1.101608-10.323212-1.315384-15.156204
		c-2.416-4.832092-12.960907-32.283188-14.498108-36.675797c-1.536606-4.3936-1.749512-8.56839-3.291-10.105499
		c-1.542007-1.537094-6.152298-3.291-6.152298-12.957001c0-9.665497-0.884308-32.292999,0.657196-35.143997
		c1.541504-2.851593,7.471695,4.180099,10.105499,7.4711c2.633804,3.291611,13.178711,12.957108,16.252899,13.397003
		c3.073303,0.439499,14.058594,1.981003,14.058594-0.875c0-2.8564-3.953094-9.665497-9.666-15.595703
		c-5.711899-5.929703-19.108398-13.836395-22.622101-22.182602c-3.513687-8.346191-2.416489-14.49369-6.369598-19.983894
		c-3.953094-5.4897-12.937988-7.560997-13.377899-10.634796c-0.439499-3.0737,7.443298-4.052704,8.544907-9.765114
		c1.102005-5.712387,2.085403-8.511688,6.4785-8.511688s5.159195-6.809601,1.536591-6.809601
		C192.131302,84.115707,196.472198,73.14991,180.294891,73.064911z"/>
	<path fill="none" stroke="#FFFFFF" stroke-width="2.42113" d="M353.429688,385.665009H46.574699
		c-9.504898,0-14.120098-3.626923-14.120098-11.079102v-69.423798c0.175301-10.435516,1.8633-22.763702,3.527798-25.676697
		c2.506401-4.004913,33.739799-56.73642,69.900902-117.798904C143.046402,98.940407,181.477493,34.062,186.99559,25.01561
		c5.608414-9.20461,10.961411-10.4765,12.24321-10.6421l1.6362,0.2788l0.188492-0.229
		c1.622009,0.300301,6.667908,1.948301,11.945297,10.5923c5.518509,9.046391,43.944305,73.924797,81.112305,136.670898
		c36.161102,61.062485,67.394501,113.793991,69.919891,117.822281c1.645508,2.889618,3.334015,15.217804,3.50882,25.852509
		v69.224609C367.549805,382.038086,362.934601,385.665009,353.429688,385.665009L353.429688,385.665009z"/>
	<g>
		<path fill="#FFFFFF" d="M57.224098,373.162109c-2.610298,0-4.747498-1.815399-4.747498-4.02832
			c0-2.222687,1.139599-5.84079,2.5341-8.048798l4.889698-7.726593c1.395-2.204102,4.672401-4.009796,7.282204-4.009796h261.752014
			c2.610291,0,5.892487,1.805695,7.287079,4.009796l4.884705,7.726593c1.399506,2.208008,2.5401,5.826111,2.5401,8.048798
			c0,2.212921-2.137695,4.02832-4.748108,4.02832H57.224098z"/>
	</g>
	<g>
		<path fill="#FFFFFF" d="M300.823181,340.449188c-22.782196,0-41.317291-18.531189-41.317291-41.310486
			c0-14.660187,7.735291-28.145508,20.287109-35.575195c-4.381897-11.746109-7.916992-22.860397-10.465912-31.258804
			l-25.512589,48.951187c5.457993,4.308624,8.676697,10.879822,8.685501,17.879822
			c-0.017609,10.954102-7.877899,20.257874-18.542007,22.273499v5.663086c0,2.3349-1.902298,4.235291-4.238297,4.235291
			c-2.3349,0-4.237305-1.900391-4.237305-4.235291v-5.663086c-9.176697-1.735413-16.308594-8.863312-18.041992-18.037109h-8.797302
			c-2.134796,20.922791-19.843307,37.077087-41.046906,37.077087c-22.783691,0-41.318893-18.531189-41.318893-41.310486
			c0-22.78421,18.535202-41.321289,41.318893-41.321289c3.197708,0,6.428711,0.391602,9.630905,1.163086l13.194305-37.476593
			l-6.321808-11.049805c-0.129898-0.227493-0.234406-0.463898-0.315903-0.710892
			c-1.7202-0.19931-3.417496-0.53421-5.236298-1.032303c-4.107895-1.124008-5.602097-4.200195-5.258804-6.749008
			c0.311508-2.318298,2.061005-3.938492,4.258804-3.938492c0.112808,0,0.229904,0.006393,0.347107,0.014694
			c1.548889,0.119598,4.086899,0.845703,7.025391,1.684998c3.693405,1.056702,8.293503,2.370605,10.865311,2.370605
			c3.086899,0,3.475998,1.651398,3.498993,2.360397c0.077606,2.288101-3.681198,4.225601-5.995605,4.989304l4.281708,7.490204
			h77.133804c-2.964813-9.963898-4.570313-16.415497-4.601593-21.1138c-0.096619-3.790009,1.4375-7.1362,4.105499-8.912598
			c1.944275-1.345703,4.051788-1.97171,6.285187-2.630798c0.455994-0.135803,0.926697-0.274002,1.410095-0.424805
			c2.122101-0.724197,2.262695-1.152908,2.323303-1.757904c-0.019592-0.494095-0.375-1.502396-1.144592-2.331497
			c-0.596619-0.686005-1.251923-1.010696-1.48822-1.081497c-20.058594,0.001892-24.566483,0.005798-24.822281,0.008286
			c-2.376999,0.001907-4.279312-1.900391-4.279312-4.240295c0-2.339294,1.902313-4.241699,4.242203-4.241699
			c0.0224,0,19.811508,0,24.892624,0.0103h0.05658l0.054688,0.00441c5.832001,0.372498,10.639618,5.577103,10.947205,11.852997
			c0.137695,4.530792-3.227478,8.496597-8.375885,9.902802c-2.006897,0.590393-4.545013,1.335495-5.19342,1.827194
			c-0.389587,0.322296-0.481384,0.399902-0.539978,2.067398c-0.038116,3.4384,1.780182,10.834,6.080994,24.6884
			c0.207092,0.681702,0.485382,1.617203,0.829102,2.781296c2.067383,6.970703,6.290985,21.215805,12.044006,36.698212
			c4.3125-1.477509,8.77829-2.226501,13.292877-2.226501c22.779297,0.007782,41.310608,18.547791,41.310608,41.325195
			C342.133789,321.917999,323.602478,340.449188,300.823181,340.449188L300.823181,340.449188z M282.921906,271.648407
			c-9.244202,6.041107-14.917023,16.389709-14.936523,27.494202c0.032196,18.072205,14.762604,32.801697,32.839813,32.82608
			c18.070282-0.024384,32.801819-14.753876,32.833008-32.8349c-0.031189-18.070282-14.762726-32.805695-32.839813-32.84079
			c-3.4776,0.005798-6.912109,0.569305-10.237305,1.67569c4.716797,11.849701,9.381805,21.588928,13.868103,28.97171
			c1.201202,2.002991,0.556702,4.610413-1.430603,5.820313c-0.669983,0.401398-1.423889,0.611389-2.191498,0.611389
			c-1.473602,0-2.865204-0.781311-3.626892-2.036194C292.523407,293.617188,287.724579,283.639618,282.921906,271.648407
			L282.921906,271.648407z M157.598099,266.292999c-18.076599,0.037109-32.809502,14.7724-32.841301,32.849609
			c0.031799,18.066406,14.764702,32.794891,32.843803,32.82608c16.471695-0.029175,30.394501-12.438385,32.512695-28.596588
			h-32.517105c-1.376999,0-2.670395-0.670013-3.463394-1.789093c-0.787094-1.109406-0.9897-2.549805-0.546402-3.844696
			l10.802795-30.69632C162.104004,266.547913,159.827103,266.294891,157.598099,266.292999L157.598099,266.292999z
			 M233.957993,300.169891v12.558594c5.928696-1.823181,10.044907-7.243073,10.051804-13.592773
			c-0.003006-3.852509-1.528397-7.4375-4.247101-10.107422L233.957993,300.169891L233.957993,300.169891z M216.121094,303.372101
			c1.389603,4.473602,4.880905,7.962891,9.361298,9.354492v-9.354492H216.121094L216.121094,303.372101z M216.126007,294.900391
			h6.288086l-3.118195-5.445282C217.843796,291.014618,216.761688,292.872986,216.126007,294.900391L216.126007,294.900391z
			 M198.643097,294.900391h8.800293c0.961899-5.0625,3.628906-9.676788,7.520508-13.020477l-28.990295-50.671921
			l-10.748001,30.547897C188.372101,267.948212,197.1763,280.410217,198.643097,294.900391L198.643097,294.900391z
			 M163.566895,294.900391h26.548294c-1.406189-10.804688-8.01709-20.146484-17.733887-25.0625L163.566895,294.900391
			L163.566895,294.900391z M192.414993,225.403305L222.291,277.625c0.987289-0.326202,2.04689-0.584015,3.191391-0.783203v-1.324188
			c0-2.335999,1.902405-4.238312,4.237305-4.238312c2.335999,0,4.238297,1.902313,4.238297,4.238312v1.330994
			c0.805695,0.146515,1.573303,0.32431,2.3125,0.5401l27.090805-51.985397H192.414993L192.414993,225.403305z"/>
		<path fill="#0334A6" d="M246.73439,172.023911c0.023407,0,19.808609,0,24.887711,0.009293
			c5.026306,0.321793,8.99408,4.894501,9.248993,10.128906c0.104492,3.414597-2.496094,6.8237-7.041016,8.063004
			c-2.879883,0.846191-4.931671,1.46579-5.811493,2.132294c-0.803802,0.662094-1.172882,1.026398-1.257904,3.452194
			c-0.041901,3.787598,1.868225,11.45311,6.162201,25.289001c1.441406,4.724609,6.430603,22.405304,13.538025,41.268616
			c4.454102-1.745117,9.287079-2.738312,14.361389-2.738312c21.818298,0.009796,39.495087,17.685608,39.495087,39.508789
			c0,21.809601-17.676788,39.495117-39.495087,39.495117c-21.81839,0-39.5-17.685516-39.5-39.495117
			c0-15.022491,8.379791-28.079102,20.716797-34.760681c-5.655304-14.976608-9.944397-29.105515-12.256897-36.870209
			l-28.296799,54.291107c5.541901,3.773376,9.1884,10.128876,9.197189,17.339783
			c-0.013687,10.739319-8.123993,19.492218-18.540985,20.712891v7.220703c0,1.337921-1.092804,2.420898-2.420914,2.420898
			c-1.338898,0-2.42189-1.082977-2.42189-2.420898v-7.220703c-9.618103-1.125977-17.174805-8.6875-18.299805-18.295898h-12.030197
			c-1.253006,20.678711-18.376007,37.078125-39.371597,37.078125c-21.818909,0-39.504402-17.685516-39.504402-39.495117
			c0-21.823181,17.685493-39.503906,39.504402-39.503906c3.745102,0,7.352997,0.553711,10.786102,1.527313l14.025391-39.839798
			l-6.733398-11.769501c-0.265091-0.468811-0.316895-0.984406-0.255402-1.480499
			c-1.849091-0.127899-3.873001-0.420898-6.393494-1.111298c-5.465393-1.495209-4.613297-7.120605-1.479996-7.120209
			c0.067886,0,0.137695,0.003006,0.207993,0.008301c3.300797,0.255402,13.207504,4.062103,18.030807,4.062103
			c4.823196,0-2.038101,3.929596-4.062103,4.066406c-0.449203,0.02829-0.884201,0.051697-1.319305,0.076096l6.114304,10.696289
			h80.625488c-3.494202-11.576096-5.196289-18.300293-5.224701-22.939392c-0.080994-3.191895,1.115295-5.939499,3.295898-7.391098
			c2.103607-1.456604,4.44931-1.971695,7.225616-2.832596c3.229492-1.101501,3.489288-2.184494,3.6026-3.423798
			c0.009705-1.063507-0.619202-2.548309-1.63092-3.6362c-0.941376-1.086914-2.185486-1.662109-2.734375-1.662109
			c-0.019501,0-0.038116,0.0009-0.055603,0.002411c-5.087921,0-24.864304,0-24.887711,0.009293
			c-1.3526,0-2.425797-1.082993-2.425797-2.425797S245.38179,172.023911,246.73439,172.023911 M221.482391,279.868195
			c1.811508-0.780304,3.783203-1.214905,5.816406-1.451202v-2.899384c0-1.337891,1.082993-2.420898,2.42189-2.420898
			c1.32811,0,2.420914,1.083008,2.420914,2.420898v2.899384c1.745087,0.203125,3.432587,0.576202,5.0215,1.186523
			l29.191391-56.017609h-77.069794L221.482391,279.868195 M196.968796,296.716797h12.030197
			c0.690506-5.896484,3.7686-11.027283,8.313507-14.389679l-31.735397-55.468719L172.9561,262.731415
			C186.43309,268.424805,196.037094,281.395508,196.968796,296.716797 M300.827087,301.554688
			c-0.823181,0-1.622009-0.415985-2.07608-1.163086c-5.532227-9.131805-10.578125-20.338898-14.933624-31.414093
			c-10.516602,5.954102-17.623993,17.212891-17.647491,30.160187c0.033203,19.132813,15.519592,34.620117,34.652405,34.648407
			c19.132782-0.02829,34.61911-15.515594,34.652283-34.648407c-0.033173-19.136688-15.519501-34.623993-34.652283-34.661102
			c-4.459015,0.00882-8.706116,0.88382-12.616211,2.42572c4.3125,11.003876,9.291901,22.097687,14.692322,30.982483
			c0.680695,1.134705,0.321289,2.628906-0.823212,3.324219C301.682587,301.445313,301.252899,301.554688,300.827087,301.554688
			 M157.597198,333.786102c18.314392-0.033203,33.248001-14.234314,34.524902-32.231415h-34.524902
			c-0.785202,0-1.527405-0.378876-1.981506-1.021484c-0.454102-0.638702-0.567398-1.460907-0.311996-2.204102l11.462402-32.571289
			c-2.922302-0.803711-5.986801-1.277313-9.1689-1.281219c-19.142105,0.037109-34.6241,15.524414-34.657303,34.661102
			C122.973099,318.270508,138.455093,333.752899,157.597198,333.786102 M161.001999,296.716797h31.120102
			c-0.9366-13.198181-9.207108-24.348602-20.788101-29.375L161.001999,296.716797 M232.141602,289.241211l2.75679-5.287109
			c-0.893494-0.302704-1.806595-0.539093-2.75679-0.685486V289.241211 M227.298798,290.035217v-6.766602
			c-1.167908,0.179596-2.297791,0.457977-3.371109,0.875L227.298798,290.035217 M232.141602,315.002899
			c7.741196-1.191406,13.675797-7.797791,13.684586-15.865204c-0.003891-5.342804-2.628891-10.03418-6.625-12.960907
			l-7.059586,13.547821V315.002899 M213.845688,296.716797h11.699203l-5.802704-10.138702
			C216.635696,289.046906,214.479492,292.607391,213.845688,296.716797 M227.298798,315.002899v-13.448212h-13.45311
			C214.910202,308.496094,220.352493,313.934601,227.298798,315.002899 M246.73439,168.392105
			c-3.33989,0-6.057602,2.717804-6.057602,6.057602c0,3.340286,2.717712,6.057602,6.057602,6.057602h0.0215l0.0439-0.001007
			c0.325211-0.003891,4.833008-0.008301,24.3936-0.008301c0.130798,0.082611,0.310516,0.216797,0.473602,0.405304l0.042023,0.048798
			l0.043884,0.04689c0.225586,0.242706,0.395508,0.52301,0.506897,0.758316c-0.214905,0.101089-0.520508,0.229004-0.946289,0.375992
			c-0.459015,0.141602-0.905304,0.273407-1.34082,0.402298c-2.364288,0.700211-4.598694,1.361908-6.798889,2.879013
			c-3.164001,2.123001-4.988312,6.025787-4.885712,10.453094c0.03421,4.511703,1.418915,10.446793,3.986298,19.249496h-73.648895
			l-2.724594-4.765594c2.564896-1.204102,5.290009-3.239304,5.198196-5.958008
			c-0.022888-0.6875-0.388199-4.115295-5.313889-4.115295c-2.317413,0-6.7798-1.275894-10.365311-2.300797
			c-3.158691-0.902802-5.65329-1.616211-7.385193-1.750397c-0.1651-0.012711-0.328598-0.0186-0.488297-0.0186
			c-3.080612-0.000519-5.628403,2.317398-6.057602,5.5112c-0.433609,3.225601,1.440399,7.337891,6.57959,8.743195
			c1.551208,0.424805,3.020508,0.737305,4.488708,0.952087l5.8741,10.267609l-12.383301,35.176804
			c-2.8125-0.569397-5.643097-0.857391-8.450699-0.857391c-23.785202,0-43.136299,19.350494-43.136299,43.135681
			c0,23.780304,19.351097,43.126892,43.136299,43.126892c21.582993,0,39.697189-16.02829,42.654297-37.078094h5.730896
			c2.20311,8.706116,8.976608,15.478516,17.684616,17.680695v4.204102c0,3.336914,2.71579,6.052704,6.05368,6.052704
			c3.337906,0,6.052704-2.71579,6.052704-6.052704v-4.205078c10.755905-2.722626,18.526398-12.410126,18.541107-23.723602
			c-0.008804-7.056702-3.030304-13.701202-8.215912-18.337891l22.793015-43.732407
			c2.299805,7.405197,5.217804,16.342682,8.68158,25.725601c-12.338776,7.900299-19.882782,21.549805-19.882782,36.339783
			c0,23.780304,19.348694,43.126892,43.131897,43.126892c23.780182,0,43.126892-19.346588,43.126892-43.126892
			c0-23.777283-19.345703-43.129883-43.125-43.140594c-4.128906,0-8.21579,0.599609-12.193298,1.785095
			c-5.427795-14.7939-9.416107-28.252899-11.404297-34.961899c-0.345703-1.166992-0.624115-2.105499-0.830109-2.781189
			c-2.813477-9.065506-6.029297-19.976105-6.004883-24.149902c0.012695-0.330597,0.030304-0.571808,0.046906-0.745209
			c0.864197-0.390091,2.938507-1.000397,4.382782-1.424789c5.954102-1.638107,9.843719-6.323212,9.679718-11.667908
			L284.5,182.018112l-0.002014-0.0327c-0.349579-7.181702-5.90329-13.145111-12.643494-13.576706l-0.113312-0.006805
			l-0.112274-0.000488C266.547882,168.392105,246.757797,168.392105,246.73439,168.392105L246.73439,168.392105z
			 M195.546402,227.217804h64.820786l-24.669891,47.339813c-0.460999-2.882813-2.965897-5.092804-5.976608-5.092804
			c-3.284195,0-5.96579,2.628876-6.051788,5.892578c-0.171799,0.0401-0.342712,0.081116-0.511703,0.125L195.546402,227.217804
			L195.546402,227.217804z M177.471191,260.84079l8.8965-25.287079l26.299316,45.966797
			c-3.23732,3.152405-5.558609,7.169891-6.679718,11.564484h-5.733398
			C198.3228,279.198212,189.895493,267.271515,177.471191,260.84079L177.471191,260.84079z M293.006805,269.138702
			c2.557678-0.679688,5.176788-1.025391,7.822296-1.030304c17.065399,0.033203,30.984375,13.955109,31.013702,31.036102
			c-0.029327,17.067413-13.948303,30.984406-31.026398,31.009796c-17.067413-0.025391-30.985321-13.942383-31.014618-31.022491
			c0.017517-9.729492,4.641602-18.857391,12.296814-24.68161c4.552795,11.141602,9.101593,20.486298,13.545898,27.823212
			c1.093781,1.798889,3.078186,2.913086,5.182587,2.913086c1.100616,0,2.180695-0.299805,3.122101-0.86618
			c2.851593-1.733398,3.772491-5.455109,2.063507-8.303711C301.796906,289.080109,297.430695,280.055695,293.006805,269.138702
			L293.006805,269.138702z M157.597198,330.154297c-17.078598-0.033203-30.995605-13.948212-31.025398-31.022491
			c0.029793-17.068298,13.950691-30.990204,31.032204-31.023407c1.434097,0.002014,2.893997,0.114319,4.366699,0.335907
			l-10.092804,28.67868c-0.644501,1.876007-0.350601,3.927826,0.777893,5.514709
			c1.1259,1.592804,2.975098,2.548798,4.941406,2.548798h30.376892C185.115692,319.4375,172.457001,330.125,157.597198,330.154297
			L157.597198,330.154297z M166.128891,293.084991l7.255402-20.626984c7.585907,4.492188,12.878403,11.973602,14.594208,20.626984
			H166.128891L166.128891,293.084991z M235.773392,300.614288l4.341797-8.333099
			c1.344818,2.004913,2.077209,4.368225,2.079102,6.859406c-0.004791,4.647491-2.541992,8.726593-6.420898,10.857391V300.614288
			L235.773392,300.614288z M218.876999,293.084991c0.066391-0.118195,0.134689-0.234375,0.204102-0.350586l0.201096,0.350586
			H218.876999L218.876999,293.084991z M218.863297,305.186493h4.803711v4.79892
			C221.648392,308.864288,219.985397,307.203094,218.863297,305.186493L218.863297,305.186493z"/>
	</g>
</g>
</svg>
