<svg class="svgOrigin" xmlns="http://www.w3.org/2000/svg" width="400" height="400" x="0px" y="0px" viewBox="0 0 400 400" enable-background="new 0 0 400 400">
<g>
	
		<rect x="60.463203" y="60.461639" transform="matrix(0.70712 -0.707094 0.707094 0.70712 -82.841606 199.994308)" width="279.073578" height="279.073578"/>
	<polygon fill="none" stroke="#FFD113" stroke-width="3.8609" points="199.995102,390.057617 9.94141,199.996613 
		199.995102,9.94291 390.05368,199.996613 199.995102,390.057617 	"/>
	<g>
		<path fill="#FFD113" d="M221.837891,347.627899c-12.009796,12.004913-31.666,12.004913-43.681198,0l-125.780693-125.791
			c-12.015198-12.004898-12.015198-31.663589,0-43.678696L178.156693,52.372608
			c12.015198-12.015198,31.671402-12.015198,43.681198,0l125.786102,125.785599
			c12.014709,12.015106,12.014709,31.673798,0,43.678696L221.837891,347.627899z"/>
	</g>
	<path d="M279.540985,152.343704H129.091293c-25.719193,0-46.566895,20.847702-46.566895,46.566895
		c0,25.721207,20.847702,46.565002,46.566895,46.565002h150.449692c25.718811,0,46.566406-20.843796,46.566406-46.565002
		C326.107391,173.191406,305.259796,152.343704,279.540985,152.343704z"/>
	<path fill="#FBC511" d="M238.865189,198.910599c0,19.08551-15.463791,34.549408-34.546799,34.549408
		s-34.55719-15.463898-34.55719-34.549408c0-19.083496,15.474197-34.5522,34.55719-34.5522
		S238.865189,179.827103,238.865189,198.910599z"/>
	<path fill="#008689" d="M162.748489,198.910599c0,19.08551-15.468689,34.549408-34.552185,34.549408
		c-19.083008,0-34.551804-15.463898-34.551804-34.549408c0-19.083496,15.468796-34.5522,34.551804-34.5522
		C147.2798,164.358398,162.748489,179.827103,162.748489,198.910599z"/>
	<path fill="#DF0001" d="M314.987305,198.910599c0,19.08551-15.468719,34.549408-34.551819,34.549408
		c-19.082977,0-34.551697-15.463898-34.551697-34.549408c0-19.083496,15.468719-34.5522,34.551697-34.5522
		C299.518585,164.358398,314.987305,179.827103,314.987305,198.910599z"/>
</g>
</svg>
