<svg class="svgOrigin" xmlns="http://www.w3.org/2000/svg" width="400" height="400" x="0px" y="0px" viewBox="0 0 400 400" enable-background="new 0 0 400 400">
<g>
	<g>
		<g>
			<path fill="#0334A6" d="M13.7925,46.311508c0-20.713398,16.903301-37.617199,37.563499-37.617199h297.28949
				c20.713928,0,37.564514,16.903801,37.564514,37.617199v307.378906c0,20.766602-16.850586,37.563507-37.564514,37.563507
				H51.355999c-20.660198,0-37.563499-16.796906-37.563499-37.563507V46.311508z"/>
			<path fill="#0334A6" d="M51.355999,8.69431c-20.660198,0-37.563499,16.903801-37.563499,37.617199v307.378906
				c0,20.766602,16.903301,37.563507,37.563499,37.563507h297.28949c20.713928,0,37.564514-16.796906,37.564514-37.563507V46.311508
				c0-20.713398-16.850586-37.617199-37.564514-37.617199H51.355999z M8.42627,46.311508
				c0-23.6113,19.37203-42.929699,42.929729-42.929699h297.28949c23.558624,0,42.930725,19.318399,42.930725,42.929699v307.378906
				c0,23.611389-19.372101,42.929718-42.930725,42.929718H51.355999c-23.557699,0-42.929729-19.318329-42.929729-42.929718
				V46.311508z"/>
		</g>
		<g>
			<path fill="none" stroke="#FFFFFF" stroke-width="5.36624" d="M348.645477,391.253906H51.355999
				c-20.660198,0-37.563499-16.796906-37.563499-37.563507V46.311508c0-20.713398,16.903301-37.617199,37.563499-37.617199
				h297.28949c20.713928,0,37.564514,16.903801,37.564514,37.617199v307.378906
				C386.209991,374.457001,369.359406,391.253906,348.645477,391.253906z"/>
		</g>
	</g>
	<path fill="#FFFFFF" d="M305.664093,105.672409c-3.0401-6.888199-24.945313-45.783199-34.194397-60.126499
		c-2.064392-3.201702-4.192413-6.1572-7.038116-6.1572c-2.845673,0-4.973572,2.955498-7.037994,6.1572
		c-9.249084,14.3433-31.154297,53.2383-34.194397,60.126499c-3.730392,8.426697,2.914108,14.097099,14.259811,6.642502
		c3.667999-2.410606,7.782196-5.206505,11.670898-7.892006v159.229401c-4.889709-4.213806-10.0625-7.892517-15.302811-11.01561
		C219.080093,244,204.123993,239.158203,190.541,239.0215c-4.894501,0-19.976501,0-33.895508-0.010788
		c2.798309-4.044907,5.743698-8.363205,8.264206-12.199203c7.457504-11.350601,1.787094-17.996109-6.639694-14.264603
		c-6.891113,3.039001-45.785606,24.944305-60.128906,34.199203c-3.202095,2.064392-6.1577,4.192398-6.1577,7.033188
		c0,2.850616,2.955605,4.977509,6.1577,7.042999c14.3433,9.24411,53.237793,31.149414,60.128906,34.188416
		c8.426788,3.731476,14.097198-2.914001,6.639694-14.253906c-2.525909-3.846588-5.470703-8.174805-8.269608-12.220703
		c13.919006,0,29.006409,0,33.900909,0c5.753891-0.136688,17.571289,3.018616,28.21489,9.485413
		c10.816406,6.382782,20.658203,15.752899,25.867111,26.558594c2.861389,5.911102,4.474686,12.231384,4.506897,19.36908v31.347717
		h29.513687V103.667999c4.203094,2.908707,8.747009,6.010712,12.760712,8.646912
		C302.75,119.769508,309.394501,114.099106,305.664093,105.672409z"/>
	<rect x="347.021484" y="43.91111" fill="#FFFFFF" width="11.7178" height="43.1973"/>
	<rect x="347.021484" y="132.949203" fill="#FFFFFF" width="11.7178" height="43.1973"/>
	<rect x="347.021484" y="221.990204" fill="#FFFFFF" width="11.7178" height="43.202198"/>
	<rect x="347.021484" y="311.025391" fill="#FFFFFF" width="11.7178" height="43.203098"/>
	<rect x="38.6772" y="43.91111" fill="#FFFFFF" width="11.7232" height="43.1973"/>
	<rect x="38.6772" y="132.949203" fill="#FFFFFF" width="11.7232" height="43.1973"/>
	<rect x="38.6772" y="221.990204" fill="#FFFFFF" width="11.7232" height="43.202198"/>
	<rect x="38.6772" y="311.025391" fill="#FFFFFF" width="11.7232" height="43.203098"/>
</g>
</svg>
