<svg class="svgOrigin" xmlns="http://www.w3.org/2000/svg" width="400" height="400" x="0px" y="0px" viewBox="0 0 400 400" enable-background="new 0 0 400 400">
<g>
	<g>
		<g>
			<path fill="#0334A6" d="M386.209991,46.300808v307.432587c0,20.712891-16.850586,37.563477-37.564514,37.563477H51.355999
				c-20.660198,0-37.563499-16.850586-37.563499-37.563477V46.300808c0-20.713898,16.903301-37.563499,37.563499-37.563499
				h297.28949C369.359406,8.737309,386.209991,25.58691,386.209991,46.300808z"/>
			<path fill="#0334A6" d="M348.645477,391.296875c20.713928,0,37.564514-16.850586,37.564514-37.563477V46.300808
				c0-20.713898-16.850586-37.563499-37.564514-37.563499H51.355999c-20.660198,0-37.563499,16.849602-37.563499,37.563499
				v307.432587c0,20.712891,16.903301,37.563477,37.563499,37.563477H348.645477z M391.576202,353.733398
				c0,23.611298-19.372101,42.929688-42.930725,42.929688H51.355999c-23.557699,0-42.929729-19.31839-42.929729-42.929688V46.300808
				c0-23.611298,19.37203-42.929699,42.929729-42.929699h297.28949c23.558624,0,42.930725,19.318401,42.930725,42.929699V353.733398
				z"/>
		</g>
		<g>
			<path fill="none" stroke="#FFFFFF" stroke-width="5.36624" d="M348.645477,391.296875H51.355999
				c-20.660198,0-37.563499-16.850586-37.563499-37.563477V46.300808c0-20.713898,16.903301-37.563499,37.563499-37.563499
				h297.28949c20.713928,0,37.564514,16.849602,37.564514,37.563499v307.432587
				C386.209991,374.446289,369.359406,391.296875,348.645477,391.296875z"/>
		</g>
	</g>
	<rect x="347.021484" y="43.908211" fill="#FFFFFF" width="11.7178" height="43.1973"/>
	<rect x="347.021484" y="132.946808" fill="#FFFFFF" width="11.7178" height="43.197193"/>
	<rect x="347.021484" y="221.990204" fill="#FFFFFF" width="11.7178" height="43.191399"/>
	<rect x="347.021484" y="311.025391" fill="#FFFFFF" width="11.7178" height="43.192402"/>
	<rect x="38.6772" y="43.908211" fill="#FFFFFF" width="11.7232" height="43.1973"/>
	<rect x="38.6772" y="132.946808" fill="#FFFFFF" width="11.7232" height="43.197193"/>
	<rect x="38.6772" y="221.990204" fill="#FFFFFF" width="11.7232" height="43.191399"/>
	<rect x="38.6772" y="311.025391" fill="#FFFFFF" width="11.7232" height="43.192402"/>
	<path fill="#FFFFFF" d="M241.237289,118.464409c-3.049789-6.888199-24.950195-45.783203-34.199188-60.126499
		c-2.064499-3.201702-4.192413-6.1572-7.038101-6.1572c-2.845703,0-4.973099,2.955498-7.038101,6.1572
		c-9.249496,14.343296-31.154297,53.2383-34.199203,60.126499c-3.726105,8.426697,2.9189,14.097099,14.264603,6.642502
		c3.416992-2.245605,7.221191-4.829102,10.8741-7.344704v226.970184h32.197189V117.762207
		c3.65242,2.515602,7.457108,5.099098,10.8741,7.344704C238.31839,132.561508,244.957993,126.891106,241.237289,118.464409z"/>
</g>
</svg>
