<svg class="svgOrigin" xmlns="http://www.w3.org/2000/svg" width="400" height="400" x="0px" y="0px" viewBox="0 0 400 400" enable-background="new 0 0 400 400">
<g>
	
		<rect x="61.171597" y="61.171604" transform="matrix(0.707107 -0.707107 0.707107 0.707107 -82.842712 200)" width="277.656799" height="277.656799"/>
	<polygon fill="none" stroke="#FFD113" stroke-width="3.84133" points="200.004898,389.095703 389.095703,200 200.004898,10.90431 
		10.9097,200 200.004898,389.095703 	"/>
	<g>
		<path fill="#FFD113" d="M178.272491,346.876007c11.949203,11.949188,31.505798,11.949188,43.4599,0l125.143616-125.148499
			c11.954071-11.949203,11.954071-31.505798,0-43.455002L221.732391,53.124001c-11.954102-11.95409-31.510696-11.95409-43.4599,0
			L53.124001,178.272507c-11.954102,11.949203-11.954102,31.505798,0,43.455002L178.272491,346.876007z"/>
	</g>
	<path d="M118.957001,149.397507c2.520493-2.936096,23.653397-29.334999,33.281296-41.374596
		c2.895996-3.621002,4.751892-3.385704,4.751892-3.385704s1.855515-0.235298,4.751511,3.385704
		c9.628403,12.039597,30.760696,38.438499,33.281693,41.374596c3.015701,3.516098,1.530304,9.153305-5.8022,5.8022
		c-1.880402-0.860306-4.931595-2.251007-8.4077-3.841293c-3.346191-1.525909-8.453094,0.830093-8.453094,4.026398v25.053696
		h91.161087v94.177704H232.791v-63.442413h-91.166v-55.788986c0-3.201202-5.117203-5.552307-8.457993-4.026398
		c0,0-6.582512,3.00589-8.408211,3.841293C117.4263,158.550812,115.940895,152.913605,118.957001,149.397507z"/>
</g>
</svg>
