<svg class="svgOrigin" xmlns="http://www.w3.org/2000/svg" width="400" height="400" x="0px" y="0px" viewBox="0 0 400 400" enable-background="new 0 0 400 400">
<g>
	
		<rect x="60.464493" y="60.464497" transform="matrix(0.707107 -0.707107 0.707107 0.707107 -82.842712 200)" width="279.071014" height="279.071014"/>
	<polygon fill="none" stroke="#FFD113" stroke-width="3.8609" points="199.995102,390.058594 9.94141,200 199.995102,9.94141 
		390.05368,200 199.995102,390.058594 	"/>
	<g>
		<path fill="#FFD113" d="M221.837891,347.623993c-12.009796,12.009796-31.666,12.009796-43.681198,0L52.375999,221.837906
			c-12.015198-12.009796-12.015198-31.666,0-43.6763L178.156693,52.375999c12.015198-12.01519,31.671402-12.01519,43.681198,0
			l125.786102,125.785606c12.014709,12.0103,12.014709,31.666504,0,43.6763L221.837891,347.623993z"/>
	</g>
	<path d="M218.666,124.833c-7.435501-0.768997-17.685501,4.881401-17.685501,8.234901
		c0,3.353012,7.6259,10.974106,17.685501,11.582504c10.059601,0.613297,17.072296-3.961411,17.072296-7.012695
		C235.738297,134.590805,227.508789,125.74321,218.666,124.833z"/>
	<path d="M243.057587,156.544907c-6.338791-2.207001-18.2939,2.131393-18.2939,9.144592
		c0,7.017502,6.1035,13.422302,13.417908,13.115707c7.314499-0.306702,13.111404-7.319397,13.111404-10.064499
		C251.292999,165.996109,250.071289,158.98291,243.057587,156.544907z"/>
	<path d="M253.720688,182.158203c0,0,0.919907,5.183105-2.740189,5.183105c-3.65921,0-9.757813-4.569809-9.757813-4.569809
		s0.608414,6.399902-3.050797,7.314911c-3.660202,0.9151-9.144592-3.659607-9.144592-3.659607
		s-1.226501,8.234299,4.569397,14.638596c5.796906,6.405304,11.286102,7.922913,17.992203,4.263702
		c6.707001-3.655304,9.757782-6.093292,8.842682-9.446289C259.517609,192.529312,256.767609,186.125,253.720688,182.158203z"/>
	<path d="M301.328094,241.2686h-17.016602c0.120087-1.125992,0.206085-2.417999,0.206085-3.916092
		c0-5.792007-8.536194-14.941406-18.595673-14.337906c-10.059616,0.613297-19.213913,6.1026-19.213913,10.371109
		c0,2.237289,0.753906,5.383789,1.472702,7.882889h-14.378006l-28.503891-91.093292c0,0-1.643509-2.191895-2.126907-2.251999
		c-8.998596-1.061005-15.584-4.72551-16.378387-9.999496c-0.673401-4.50441,3.001389-9.149399,9.260193-12.688408
		c0.402405-0.226097,0.678696-2.458496,0.678696-2.458496l-10.291-32.877998l-86.407196,158.090393h208.01561L301.328094,241.2686z"
		/>
</g>
</svg>
