<svg class="svgOrigin" xmlns="http://www.w3.org/2000/svg" width="400" height="400" x="0px" y="0px" viewBox="0 0 400 400" enable-background="new 0 0 400 400">
<g>
	<g>
		<path fill="#0334A6" d="M397.210876,369.652313c0,11.856476-9.694275,21.549835-21.549774,21.549835H25.503901
			c-11.851601,0-21.547852-9.693359-21.547852-21.549835V30.34671c0-11.856001,9.69625-21.549801,21.547852-21.549801h350.157196
			c11.855499,0,21.549774,9.693799,21.549774,21.549801V369.652313z"/>
	</g>
	<g>
		<path fill="none" stroke="#FFFFFF" stroke-width="4.6127" d="M391.395477,364.634796
			c0,11.495117-9.401398,20.901306-20.896484,20.901306H30.668501c-11.4937,0-20.897022-9.406189-20.897022-20.901306V35.365208
			c0-11.496098,9.403321-20.896898,20.897022-20.896898h339.830505c11.495087,0,20.896484,9.400801,20.896484,20.896898V364.634796z
			"/>
	</g>
	<rect x="361.642578" y="35.365208" fill="#FFFFFF" width="18.4512" height="45.554699"/>
	<rect x="361.642578" y="119.801308" fill="#FFFFFF" width="18.4512" height="45.554691"/>
	<rect x="361.642578" y="204.233398" fill="#FFFFFF" width="18.4512" height="45.5518"/>
	<rect x="22.6094" y="35.365208" fill="#FFFFFF" width="18.451099" height="45.554699"/>
	<rect x="22.6094" y="119.801308" fill="#FFFFFF" width="18.451099" height="45.554691"/>
	<rect x="22.6094" y="204.233398" fill="#FFFFFF" width="18.451099" height="45.5518"/>
	<path fill="#FFFFFF" d="M274.037079,145.713913c-6.945282-11.576706-33.45018-55.818405-52.163086-87.058105
		C210.834,40.22311,206.486298,31.71871,202.504898,31.71871c-3.979996,0-8.43071,8.673399-19.574707,27.268599
		c-18.700699,31.223103-45.039093,75.192398-51.958496,86.726608c-11.044899,18.405685,2.104004,28.921799,21.563507,14.723083
		c7.162598-5.227493,15.820297-11.304184,23.903793-16.905792v94.217789h52.146896v-94.208481
		c8.077209,5.601089,16.730499,11.678192,23.887695,16.896484C271.933594,174.635712,285.083008,164.119598,274.037079,145.713913z"
		/>
	<circle fill="#FFFFFF" cx="343.421906" cy="347.228485" r="18.1084"/>
	<circle fill="#FFFFFF" cx="304.245087" cy="347.228485" r="18.1084"/>
	<path fill="#FFFFFF" d="M196.754395,329.021515h-82.719696c-4.126503,0-4.811104-3.811523-4.811104-6.667023
		c0-2.865204,0-32.649384,0-36.9375c0-4.288086-1.427696-5.117188-3.454994-5.117188c-2.024506,0-28.964401,0-31.331604,0
		c-2.274895,0-27.178196,31.333984-27.178196,32.946289s0,5.162109,0,9.78421c0,4.621094,1.966301,1.234283,1.966301,5.549805
		c0,4.305603,0.313,6.468689-1.549801,6.468689c-3.855999,0-4.153301,12.179688,0,12.179688h16.874001
		c0-12.080994,9.831596-21.918884,21.919502-21.918884c12.090294,0,21.921791,9.837891,21.921791,21.918884h78.62941
		C187.020004,339.652313,190.89209,332.958008,196.754395,329.021515z"/>
	<path fill="#FFFFFF" d="M358.570282,254.209H164.623489c-2.097092,0-3.8134,1.711899-3.8134,3.810501v65.758789
		c0,2.098724,1.716309,3.819397,3.8134,3.819397h53.872604c7.288101,3.558502,12.365204,10.982422,12.365204,19.630798h2.279297
		c1.751999,0,4.207092,0,5.955093,0c1.751999,0,2.626007-0.693298,2.626007-2.270477c0-1.576202,0-8.576202,0-12.260712
		c0-3.675781,4.031204-5.099609,6.306595-5.099609h110.541992c2.103516,0,3.815399-1.720673,3.815399-3.819397v-65.758789
		C362.385681,255.920898,360.673798,254.209,358.570282,254.209z"/>
	<path fill="#FFFFFF" d="M208.9375,329.120087c-9.996109,0-18.1064,8.108398-18.1064,18.108398
		s8.110291,18.108429,18.1064,18.108429c10,0,18.108398-8.108429,18.108398-18.108429S218.9375,329.120087,208.9375,329.120087z"/>
	
		<ellipse transform="matrix(0.382683 -0.92388 0.92388 0.382683 -267.418701 294.236755)" fill="#FFFFFF" cx="86.468773" cy="347.228485" rx="18.108406" ry="18.10837"/>
	<g>
		<path fill="#0334A6" d="M63.938999,298.516602c-1.303699,1.639587-2.369198,4.702087-2.369198,6.801788v0.828125
			c0,2.099579,1.716297,3.811493,3.812996,3.811493H82.8965c2.094704,0,3.810997-1.711914,3.810997-3.811493v-14.648529
			c0-2.099579-1.716293-3.810486-3.810997-3.810486H76.3423c-2.094299,0-4.875999,1.341797-6.180199,2.981415L63.938999,298.516602z
			"/>
	</g>
</g>
</svg>
