<svg class="svgOrigin" xmlns="http://www.w3.org/2000/svg" width="400" height="400" x="0px" y="0px" viewBox="0 0 400 400" enable-background="new 0 0 400 400">
<g>
	
		<rect x="61.171597" y="61.171604" transform="matrix(0.707107 -0.707107 0.707107 0.707107 -82.842712 200)" width="277.656799" height="277.656799"/>
	<polygon fill="none" stroke="#FFD113" stroke-width="3.84133" points="199.995102,389.095703 10.9043,200 199.995102,10.90431 
		389.09079,200 199.995102,389.095703 	"/>
	<g>
		<path fill="#FFD113" d="M221.727493,346.876007c-11.949203,11.949188-31.505798,11.949188-43.4599,0L53.124001,221.727509
			c-11.954102-11.949203-11.954102-31.505798,0-43.455002L178.267593,53.124001c11.954102-11.95409,31.510696-11.95409,43.4599,0
			l125.148514,125.148506c11.954071,11.949203,11.954071,31.505798,0,43.455002L221.727493,346.876007z"/>
	</g>
	<path d="M279.833008,142.479996c-2.851624-4.886688-15.470703-25.648888-20.357422-33.791489
		c-4.886688-8.143097-8.547897-16.690903-17.50589-16.690903c-8.958008,0-12.619095,8.547806-17.505798,16.690903
		c-4.88681,8.142601-17.506897,28.9048-20.357498,33.791489c-2.85051,4.886703,0.810608,11.404312,11.803802,3.666504
		c1.446198-1.015594,3.021393-2.09079,4.621994-3.1763c3.875992-2.615692,6.067398,0.210007,6.067398,3.311005v1.495697
		c-0.135696,12.434509-3.721695,20.237305-10.209,28.620102c-9.688507,12.514099-27.517105,23.883301-44.462906,40.233902
		c-16.923294,16.185501-32.338791,40.018509-32.043396,74.045883h30.725601
		c0.0849-16.936584,4.354004-28.134796,10.933609-38.098679c9.838287-14.91011,26.669388-26.378906,43.180084-40.838806
		c16.251007-14.055191,32.846695-34.236893,32.611404-63.962402v-1.495697c0-3.105896,2.195313-5.936996,6.082001-3.300705
		c1.600586,1.080002,3.170898,2.150406,4.611298,3.166C279.022491,153.884308,282.683594,147.366699,279.833008,142.479996z"/>
</g>
</svg>
