<svg class="svgOrigin" xmlns="http://www.w3.org/2000/svg" width="400" height="400" x="0px" y="0px" viewBox="0 0 400 400" enable-background="new 0 0 400 400">
<g>
	
		<rect x="61.171597" y="61.171604" transform="matrix(0.707107 -0.707107 0.707107 0.707107 -82.842712 200)" width="277.656799" height="277.656799"/>
	<polygon fill="none" stroke="#FFD113" stroke-width="3.84133" points="199.997589,389.09079 10.9043,200 199.997589,10.90431 
		389.09079,200 199.997589,389.09079 	"/>
	<g>
		<path fill="#FFD113" d="M221.727493,346.876007c-11.949203,11.954102-31.508301,11.954102-43.4599,0l-125.145996-125.1436
			c-11.951702-11.954102-11.951702-31.510696,0-43.4599L178.267593,53.124001c11.951599-11.95409,31.510696-11.95409,43.4599,0
			l125.148514,125.148506c11.954071,11.949203,11.954071,31.505798,0,43.4599L221.727493,346.876007z"/>
	</g>
	<polygon points="285.474579,181.048309 218.951187,181.048309 218.951187,114.525406 181.048294,114.525406 181.048294,181.048309 
		114.522896,181.048309 114.522896,218.951202 181.048294,218.951202 181.048294,285.474609 218.951187,285.474609 
		218.951187,218.951202 285.474579,218.951202 	"/>
</g>
</svg>
