<svg class="svgOrigin" xmlns="http://www.w3.org/2000/svg" width="400" height="400" x="0px" y="0px" viewBox="0 0 400 400" enable-background="new 0 0 400 400">
<g>
	
		<rect x="61.171597" y="61.171604" transform="matrix(0.707107 -0.707107 0.707107 0.707107 -82.842712 200)" width="277.656799" height="277.656799"/>
	<polygon fill="none" stroke="#FFD113" stroke-width="3.84133" points="199.995102,389.095703 10.9043,200 199.995102,10.90431 
		389.09079,200 199.995102,389.095703 	"/>
	<g>
		<path fill="#FFD113" d="M221.727493,346.876007c-11.949203,11.949188-31.505798,11.949188-43.4599,0L53.124001,221.727509
			c-11.954102-11.949203-11.954102-31.505798,0-43.455002L178.267593,53.124001c11.954102-11.95409,31.510696-11.95409,43.4599,0
			l125.148514,125.148506c11.954071,11.949203,11.954071,31.505798,0,43.455002L221.727493,346.876007z"/>
	</g>
	<path d="M281.042999,149.397507c-2.520508-2.936096-23.653412-29.334999-33.281311-41.374596
		c-2.8965-3.621002-4.751892-3.385704-4.751892-3.385704s-1.855499-0.235298-4.751999,3.385704
		c-9.627899,12.039597-30.759796,38.438499-33.281204,41.374596c-3.015701,3.516098-1.530304,9.153305,5.801697,5.8022
		c1.880905-0.860306,4.931717-2.251007,8.408203-3.841293c3.346695-1.525909,8.453094,0.830093,8.453094,4.026398v25.053696
		h-91.159088v94.177704h30.727997v-63.442413H258.375v-55.788986c0-3.201202,5.117188-5.552307,8.458008-4.026398
		c0,0,6.582001,3.00589,8.408173,3.841293C282.573181,158.550812,284.059601,152.913605,281.042999,149.397507z"/>
</g>
</svg>
