<svg class="svgOrigin" xmlns="http://www.w3.org/2000/svg" width="400" height="400" x="0px" y="0px" viewBox="0 0 400 400" enable-background="new 0 0 400 400">
<g>
	
		<rect x="60.464493" y="60.464497" transform="matrix(0.707107 -0.707107 0.707107 0.707107 -82.842712 200)" width="279.071014" height="279.071014"/>
	<polygon fill="none" stroke="#FFD113" stroke-width="3.8609" points="199.995102,390.058594 9.94141,200 199.995102,9.94141 
		390.05368,200 199.995102,390.058594 	"/>
	<path fill="#FFD113" d="M221.837891,347.623993c-12.009796,12.009796-31.666,12.009796-43.681198,0L52.375999,221.837906
		c-12.015198-12.009796-12.015198-31.666,0-43.6763L178.156693,52.375999c12.015198-12.01519,31.671402-12.01519,43.681198,0
		l125.786102,125.785606c12.014709,12.0103,12.014709,31.666504,0,43.6763L221.837891,347.623993z"/>
	<polygon points="101.501999,240.97171 101.501999,145.741211 312.564484,240.97171 	"/>
	<path fill="#FFFFFF" d="M228.901398,221.858398c0,0-0.049805-1.659195-1.458008-2.960892
		c-1.397491-1.292007-21.8125-20.189514-21.8125-20.189514l-3.353592,8.550812l-69.767502-27.387695
		c-1.985901-0.78421-4.232895,0.195801-5.012199,2.176804c-0.567902,1.462799-0.195801,3.056595,0.834404,4.112289
		c0.376999,0.381805,0.82959,0.6884,1.347702,0.894501l69.772385,27.383804l-3.352997,8.566391
		c0,0,28.121597,0.009705,30.0327,0.040009C228.042007,223.070297,228.901398,221.858398,228.901398,221.858398z"/>
	<path d="M189.7798,144.650406l12.341293-21.3657c1.710007-2.830101,4.142609-5.017097,6.902298-6.414597l0,0
		c5.173904-2.61911,11.587906-2.563904,16.942398,0.668495l0,0c2.920898,1.764603,5.172897,4.258301,6.615311,7.098602l0,0
		c2.588791,5.102493,2.599594,11.411606-0.538101,16.604996l0,0l-12.3965,21.420898
		c-1.704102,2.830109-4.127899,5.011703-6.897507,6.399399l0,0c-5.172806,2.634308-11.572205,2.564011-16.926697-0.658691l0,0
		c-2.930695-1.75441-5.177795-4.257813-6.615799-7.098099l0,0C186.607391,156.1978,186.612793,149.883804,189.7798,144.650406
		L189.7798,144.650406z M196.093796,157.81691c0.809494,1.588394,2.046295,2.970703,3.700104,3.966293l0,0
		c3.026398,1.830109,6.610397,1.835007,9.471695,0.397003l0,0c1.522507-0.779297,2.835007-1.950699,3.740295-3.448807l0,0
		l12.381805-21.415497c1.739304-2.885696,1.748993-6.31929,0.306595-9.189896l0,0
		c-0.804703-1.588402-2.056595-2.971199-3.720703-3.971703l0,0c-3.0215-1.829597-6.59079-1.844696-9.460892-0.392097l0,0
		c-1.512695,0.769501-2.820297,1.945793-3.745102,3.4487l0,0L196.3853,148.642105
		C194.656296,151.497604,194.641098,154.940903,196.093796,157.81691L196.093796,157.81691z"/>
	<path d="M233.712891,180.665512c-0.784195-1.985809,0.201202-4.228012,2.18161-5.007309l0,0l69.088898-27.066391
		c1.985382-0.779312,4.227509,0.201187,5.006805,2.186493l0,0c0.769592,1.985901-0.201111,4.227997-2.191406,4.997101l0,0
		l-69.094696,27.076706c-1.467804,0.578094-3.076202,0.185989-4.127014-0.859406l0,0
		C234.210007,181.625504,233.9189,181.178207,233.712891,180.665512L233.712891,180.665512z"/>
	<path d="M271.743195,174.104996c5.535095-5.519989,14.483398-5.524887,20.00882,0l0,0
		c5.524384,5.524902,5.514587,14.473114,0,20.002914l0,0c-5.535217,5.519989-14.483429,5.530289-20.00882,0l0,0
		C266.218781,188.582993,266.223602,179.634811,271.743195,174.104996L271.743195,174.104996z M277.208008,179.564499
		c-2.50882,2.508301-2.503906,6.570313-0.009827,9.088806l0,0c2.518616,2.498596,6.570404,2.493698,9.088898-0.009705l0,0
		c2.498108-2.513702,2.50882-6.565491,0-9.079102l0,0C283.77829,177.061005,279.716797,177.05571,277.208008,179.564499
		L277.208008,179.564499z"/>
	<path d="M257.199188,136.123993c5.525391-5.519485,14.473694-5.529785,20.00882,0l0,0
		c5.51947,5.525421,5.509796,14.473709-0.004913,20.003418l0,0c-5.530212,5.515198-14.478516,5.524902-19.997986,0.004898l0,0
		C251.669891,150.597702,251.679688,141.649414,257.199188,136.123993L257.199188,136.123993z M262.65918,141.588913
		c-2.498993,2.513596-2.493195,6.570297,0.004913,9.084l0,0c2.513611,2.498489,6.565399,2.493591,9.074188-0.009811l0,0
		c2.503906-2.508789,2.50882-6.560593,0.009705-9.074188l0,0C269.234406,139.090302,265.172882,139.090302,262.65918,141.588913
		L262.65918,141.588913z"/>
	<path d="M162.054703,143.1875l23.647888-40.373497c1.0811-1.839897,3.443909-2.453194,5.288605-1.372597l0,0
		c1.835007,1.076202,2.458496,3.439003,1.377502,5.283699l0,0l-23.647995,40.363304
		c-1.075699,1.840302-3.443405,2.463394-5.283707,1.382797l0,0c-0.658203-0.382294-1.166-0.940399-1.482895-1.578598l0,0
		C161.376007,145.756302,161.371094,144.358902,162.054703,143.1875L162.054703,143.1875z"/>
</g>
</svg>
