<svg class="svgOrigin" xmlns="http://www.w3.org/2000/svg" width="400" height="400" x="0px" y="0px" viewBox="0 0 400 400" enable-background="new 0 0 400 400">
<g>
	
		<rect x="61.170311" y="61.168743" transform="matrix(0.70712 -0.707094 0.707094 0.70712 -82.841606 199.994278)" width="277.659363" height="277.659363"/>
	<polygon fill="none" stroke="#FFD113" stroke-width="3.84133" points="199.995102,389.094696 10.9043,199.996613 
		199.995102,10.90621 389.09079,199.996613 199.995102,389.094696 	"/>
	<g>
		<path fill="#FFD113" d="M221.727493,346.879913c-11.949203,11.944275-31.505798,11.944275-43.4599,0L53.124001,221.726608
			c-11.954102-11.944397-11.954102-31.50351,0-43.457611L178.267593,53.120609c11.954102-11.954102,31.510696-11.954102,43.4599,0
			l125.148514,125.148392c11.954071,11.954102,11.954071,31.513214,0,43.457611L221.727493,346.879913z"/>
	</g>
	<path d="M272.395508,270.103516c-3.336914-2.941406-6.9375-6.282227-8.728516-8.523407
		c-3.84079-4.801819-3.84079-12.484406-4.161102-16.965805c-0.320404-4.481506,7.682617-6.721695,7.041992-11.843796
		c-0.639679-5.122101-7.041992-12.484406-7.041992-15.685501c0-3.201202,3.201111-3.841797,5.121124-2.241302
		c1.920868,1.600601,12.804565,11.204193,15.045868,10.564499c2.240204-0.640594,7.362305-2.241196,1.600525-7.682602
		c-5.762726-5.442398-12.484314-13.767609-14.405212-16.648499c-1.920898-2.881302-10.563507-15.365692-13.125-15.365692
		c-2.560608,0-3.200195-5.121613-0.639694-5.44191c2.560593-0.319794,6.081985-6.401794,6.081985-10.243088
		c3.201202,0,7.041992,0,6.402405-2.881409c-0.640594-2.880798-4.801788-2.560501-5.122101-4.4814
		c-0.320282-1.920395-5.761703-11.524002-13.764603-10.883804c-8.002991,0.640106-11.843796,4.801712-11.843796,11.844193
		c0,7.042511-1.600601,12.804214-1.600601,15.365311c0,2.561005,6.402405,1.280197,6.402405,2.561005
		c0,1.280304-0.320297,4.801804-2.881897,4.801804c-2.560501,0-8.001907,5.441788-10.883698,5.441788
		c-2.880905,0-7.362305-11.204102-10.563507-16.325592c-3.201202-5.122101-15.685089-18.566895-21.126999-20.807709
		c-5.441895-2.240692-4.801697-6.081985-2.561005-7.042389c2.240707-0.960007,2.240707-0.960007,2.240707-0.960007
		s3.841293-2.560989,2.561005-6.722702c-1.280701-4.161087-0.320313-9.283188,0-10.5634
		c0.319901-1.280289,7.682205-4.481491,7.362793-6.722191c-0.320297-2.2407-9.923798-0.320305-11.524399-2.561005
		c-1.600601-2.240799-3.201096-7.362297-8.002899-7.682701c-3.513702-0.235298-20.167007,8.003006-21.126999,9.283302
		c-0.960403,1.280197-4.161606,8.322701-2.240707,10.243599c1.92041,1.920395,6.401901,3.201202,7.682602,6.082001
		c1.280304,2.88089,3.520996,6.722198,5.44191,8.3228c1.920395,1.600601-0.320313,4.4814-1.280701,5.441895
		c-0.960007,0.960403-15.685104,20.487305-15.685104,24.328598c0,3.841309-11.204102,2.560501-11.204102,6.082001
		c0,3.521011,0,3.521011,0,3.521011s-0.320297,9.6035,0.640106,12.164597c0.960495,2.560501,11.844299,0.640091,13.124588,5.761703
		c1.280701,5.123993-0.319885,17.289093,1.920898,20.489288c2.240707,3.201111,8.322708,2.561508,5.121506,7.683502
		c-3.201096,5.121109-11.844193,13.1241-14.725098,15.684601c-2.880798,2.561508-8.643005,10.883804-6.722107,13.125015
		c1.000504,1.169891,4.699203,5.551788,8.010208,9.483398H96.824203l13.262192,20.957001H282.30368l21.992218-20.957001H272.395508z
		 M245.420898,248.135696c0-1.920898,3.201202-0.9599,3.201202,2.241302c0,3.200104,4.161087,8.962814,5.121094,11.20311
		c0.565399,1.320282,0.130798,5.381805-0.319397,8.523407h-14.925797c-1.470703-2.001007-2.610306-4.412109-2.360306-6.922821
		C236.777298,256.77829,245.420898,250.05661,245.420898,248.135696z M201.245102,188.912613
		c1.280289,0.320297,15.365295,14.404785,17.926788,14.404785c-0.320297,2.563507,1.919907,10.246109,0.639603,13.126907
		c-1.280197,2.881897-6.721695,4.162094-6.082001,9.923904c0.64061,5.761688,0.320297,14.0849,5.122101,14.0849
		c4.801697,0,6.722595-2.560501,10.5634-2.560501c3.841797,0,5.761795,2.240189,4.801804,3.84079
		c-0.960007,1.600601-8.642609,11.204102-8.962906,14.725616c-0.320297,3.520477-6.082001,8.322174-5.761703,13.123993
		c0.009811,0.180695,0.0849,0.350586,0.139603,0.520508h-5.436493c-2.401398-2.460907-4.947296-6.042023-4.947296-8.523407
		c0-3.520508,0.960999-24.968811,0.640686-27.209c-0.320297-2.241211-4.162094-7.042999-4.162094-8.6436
		c0-1.60051,4.801697-5.121109,4.482407-10.243103c-0.320313-5.122101-10.244202-13.767593-10.244202-17.608398
		C199.964798,194.034698,199.964798,188.592804,201.245102,188.912613z M159.311005,261.260712
		c-0.640106-1.920898,6.082092-8.963806,9.603088-10.24411c3.521408-1.280304,10.883804-6.722702,10.883804-10.563492
		c0-3.841812,5.762192-12.164001,8.323196-12.164001c2.560501,0,8.002396,2.880798,8.002396,11.843689
		c0,8.962906,1.280807,18.246109,2.881409,22.087906c0.819794,1.970703-0.215302,5.202209-1.415497,7.882813H167.0737
		C163.26709,266.131805,159.610794,262.150391,159.311005,261.260712z"/>
</g>
</svg>
