<svg class="svgOrigin" xmlns="http://www.w3.org/2000/svg" width="400" height="400" x="0px" y="0px" viewBox="0 0 400 400" enable-background="new 0 0 400 400">
<g>
	
		<rect x="61.171597" y="61.174057" transform="matrix(0.707098 -0.707116 0.707116 0.707098 -82.844452 200.004257)" width="277.656799" height="277.656799"/>
	<polygon fill="none" stroke="#FFD113" stroke-width="3.84133" points="199.995102,389.095703 10.9043,200.004898 
		199.995102,10.90431 389.09079,200.004898 199.995102,389.095703 	"/>
	<g>
		<path fill="#FFD113" d="M221.727493,346.876007c-11.949203,11.954102-31.505798,11.954102-43.4599,0l-125.143593-125.1436
			c-11.954102-11.954102-11.954102-31.510696,0-43.4599L178.267593,53.124001c11.954102-11.949192,31.510696-11.949192,43.4599,0
			l125.148514,125.148506c11.954071,11.949203,11.954071,31.505798,0,43.4599L221.727493,346.876007z"/>
	</g>
	<path d="M203.050797,156.205109c-3.140594-4.636703-23.492706-32.276405-33.721207-46.141106
		c-3.526398-4.781799-5.852097-4.781799-5.852097-4.781799s-2.326096,0-5.85199,4.781799
		c-10.2285,13.8647-30.580605,41.504402-33.72171,46.141106c-2.420898,3.576096,0.210007,9.718201,6.051804,6.051697
		c2.431107-1.525406,6.542404-4.201096,10.959-7.102493c4.576599-2.990707,7.7827-2.80571,7.7827,2.545898v139.063492h29.559998
		V157.700211c0-5.351608,3.2061-5.536606,7.7827-2.545898c4.416504,2.901398,8.527908,5.577087,10.959,7.102493
		C202.84079,165.923309,205.471695,159.781204,203.050797,156.205109z"/>
	<path d="M196.9888,243.794907c3.141098,4.636703,23.493591,32.276382,33.722092,46.141586
		c3.526398,4.781311,5.851608,4.781311,5.851608,4.781311s2.326187,0,5.852493-4.781311
		c10.228607-13.865204,30.580093-41.504883,33.721695-46.141586c2.420898-3.576202-0.210907-9.717804-6.052673-6.051697
		c-2.430725,1.525391-6.542023,4.201096-10.959015,7.102493c-4.576202,2.991196-7.782211,2.805695-7.782211-2.545898V103.236305
		h-29.560593v139.063507c0,5.351593-3.206009,5.537094-7.782196,2.545898c-4.417007-2.901398-8.528305-5.577103-10.959-7.102493
		C197.199188,234.077103,194.567902,240.218704,196.9888,243.794907z"/>
</g>
</svg>
