<svg class="svgOrigin" xmlns="http://www.w3.org/2000/svg" width="400" height="400" x="0px" y="0px" viewBox="0 0 400 400" enable-background="new 0 0 400 400">
<g>
	
		<rect x="60.228802" y="60.228558" transform="matrix(0.707106 -0.707108 0.707108 0.707106 -82.84259 200.000397)" width="279.542664" height="279.542664"/>
	<polygon fill="none" stroke="#FFD113" stroke-width="3.86742" points="199.995102,390.379883 9.62012,200 199.995102,9.62011 
		390.375,200 199.995102,390.379883 	"/>
	<path fill="#FFD113" d="M221.875,347.872986c-12.030304,12.030304-31.719711,12.030304-43.754898,0L52.126499,221.875
		c-12.035198-12.030289-12.035198-31.719696,0-43.75L178.120102,52.126511c12.035187-12.035202,31.724594-12.035202,43.754898,0
		L347.872986,178.125c12.036194,12.030304,12.036194,31.719711,0,43.75L221.875,347.872986z"/>
	<path d="M333.980499,178.381805c-3.792023-2.452606-8.274414-2.925705-11.497101-2.925705
		c-1.823212,0-3.243195,0.161102-3.932617,0.256805l-21.522491-11.400909c-7.856384-7.886185-18.86911-8.289093-20.923798-8.313995
		l-23.969696-12.196198c-6.007797-7.639694-14.941406-8.530807-18.974609-8.530807c-0.660187,0-1.19339,0.025406-1.571289,0.050308
		c-4.904297-4.526901-21.744202-8.666496-23.990295-9.285698c-1.767502-1.233803-14.638596-10.776299-20.817307-10.962799
		c-0.402893,0-0.785706,0.045403-1.168503,0.156189c-3.9478,1.082512-38.668991,12.004913-51.253403,15.973106v-0.060501h-11.103493
		v165.805695h11.103493V142.693802c4.285614,5.629898,13.218704,17.3125,23.108902,29.992706
		c6.959396,8.948303,16.612808,10.781296,23.199707,10.770996c3.258301,0,5.801193-0.433105,7.019501-0.684601
		c4.486801,4.441498,18.390594,7.75,20.495102,8.334c7.025391,4.225098,13.108398,5.292496,17.358398,5.292496
		c2.689499,0,4.642593-0.417999,5.6651-0.699692c2.321198,1.938492,7.387695,3.710892,12.518494,5.609894
		c5.050797,1.782211,9.865204,3.252899,10.872101,3.565399c6.416,4.752899,14.705093,5.352509,18.955093,5.362305
		c1.172791,0,2.043915-0.044907,2.482391-0.080093l21.734406,8.354492c1.027313,1.163101,5.277313,5.186508,16.042908,7.099594
		c0.891602,0.1465,1.77829,0.231506,2.654297,0.231506c8.163116-0.044907,14.125-6.837906,18.410217-16.577194
		c1.13858-2.699203,5.570282-10.64061,5.580078-18.445801C340.496094,186.227509,338.809601,181.503906,333.980499,178.381805z
		 M159.498001,171.104996c-11.975098-15.358887-22.544907-29.257294-25.138611-32.681686v-4.572205
		c9.890106-3.167496,37.370102-11.456596,47.874512-14.8657c-6.329605,6.249504-20.968307,23.854408-21.925308,53.020897
		C160.041489,171.694305,159.754898,171.4375,159.498001,171.104996z M187.924301,180.068802l-0.130798,0.035202
		c0,0-2.885315,0.775406-7.125504,0.775406c-5.161697-0.0103-12.065506-1.223602-17.892105-6.350098
		c0.090805-18.768112,6.294907-33.255905,12.528809-43.075211c4.542496-7.161102,9.024399-11.748497,11.159195-13.767593
		c0.095703-0.020508,0.181595-0.045403,0.317398-0.045403c2.2612-0.100601,7.181107,2.5933,11.516602,5.292503
		c3.771393,2.356392,7.095703,4.69339,7.825104,5.201691C201.722702,132.672913,182.732391,154.119614,187.924301,180.068802z
		 M231.287094,192.944809l-0.221695,0.09079c-0.009705,0.0103-1.949203,0.785706-5.524399,0.785706
		c-3.841812,0-9.441406-0.951706-16.11911-4.985397l-0.161194-0.095703l-0.201096-0.045395c0,0-0.095703-0.025406-0.247101-0.065399
		c0.457993-32.027298,16.955093-47.64801,21.265594-51.167999c0.004898,0.005402,0.009796,0.0103,0.015701,0.015198
		l0.448212,0.559006l0.719681-0.10051c0.014709,0,0.679703-0.085999,1.898499-0.085999
		c3.746109,0,11.92482,0.886307,17.116211,7.755402l0.176697,0.241699l0.035202,0.020004
		C246.409195,151.11821,227.610397,176.508301,231.287094,192.944809z M276.029297,207.579102
		c-0.161102,0.014603-1.032196,0.085007-2.477509,0.085007c-4.03421,0.010696-12-0.679703-17.599701-4.995209l-0.197189-0.146393
		l-0.215805-0.065506c0,0-0.106506-0.030197-0.277405-0.080002c1.329102-27.424896,15.343811-40.879898,19.408203-44.208496
		l0.855499,0.433105l0.382813-0.030304h0.055695c1.349609-0.015091,11.918884,0.322296,19.351501,7.634308
		C290.49118,169.624512,271.738281,184.615707,276.029297,207.579102z M316.46579,223.259811
		c-0.7099,0.009689-1.455109-0.070313-2.21579-0.1866c-5.861298-1.051712-9.573212-2.718704-11.77832-4.088806
		c-2.190399-1.344803-2.7901-2.300797-2.855499-2.300797c-0.004883,0-0.004883,0-0.004883,0l-0.231415-0.307602l-0.831085-0.317398
		c-1.006805-25.364807,13.777405-35.6978,18.400391-38.281296l1.172913,0.624588l0.448181-0.085495
		c0,0,1.576202-0.282196,3.913116-0.282196c2.956085-0.015213,7,0.4785,10.081085,2.507797
		c1.173798,0.770493,2.054596,1.636703,2.794922,2.558105c-4.239319,3.071793-17.413116,14.331497-17.453125,35.638199
		c0,1.605392,0.025299,2.839798,0.17572,4.355392C317.548798,223.1689,317.014587,223.264603,316.46579,223.259811z
		 M332.509796,208.233398c-3.222717,7.316406-7.191406,12.296906-11.82431,14.170898
		c-0.130798-1.229492-0.196198-2.306595-0.205994-3.665985c-0.025391-19.23201,12.287109-30.29541,16.240204-33.588409
		c0.820313,1.731903,1.147491,3.645508,1.167999,5.669907C337.902283,197.703598,333.77829,205.352509,332.509796,208.233398z"/>
</g>
</svg>
