<svg class="svgOrigin" xmlns="http://www.w3.org/2000/svg" width="400" height="400" x="0px" y="0px" viewBox="0 0 400 400" enable-background="new 0 0 400 400">
<g>
	
		<rect x="60.464493" y="60.464497" transform="matrix(0.707107 -0.707107 0.707107 0.707107 -82.842712 200)" width="279.071014" height="279.071014"/>
	<polygon fill="none" stroke="#FFD113" stroke-width="3.8609" points="199.997589,390.053711 9.94141,200 199.997589,9.94141 
		390.05368,200 199.997589,390.053711 	"/>
	<g>
		<path fill="#FFD113" d="M221.837891,347.623993c-12.009796,12.014709-31.668503,12.014709-43.681198,0L52.373501,221.842804
			c-12.012699-12.014694-12.012699-31.670898,0-43.681198L178.156693,52.375999c12.012695-12.01519,31.671402-12.01519,43.681198,0
			l125.786102,125.785606c12.014709,12.0103,12.014709,31.666504,0,43.681198L221.837891,347.623993z"/>
	</g>
	<polygon points="275.272491,181.9272 200.942398,181.9272 200.942398,123.787605 159.242203,123.787605 159.242203,274.266602 
		200.942398,274.266602 200.942398,218.0625 275.272491,218.0625 	"/>
</g>
</svg>
