<svg class="svgOrigin" xmlns="http://www.w3.org/2000/svg" width="400" height="400" x="0px" y="0px" viewBox="0 0 400 400" enable-background="new 0 0 400 400">
<g>
	
		<rect x="60.464493" y="60.466949" transform="matrix(0.707098 -0.707116 0.707116 0.707098 -82.844452 200.004227)" width="279.071014" height="279.071014"/>
	<polygon fill="none" stroke="#FFD113" stroke-width="3.8609" points="199.995102,390.058594 9.94141,200.004898 
		199.995102,9.94141 390.05368,200.004898 199.995102,390.058594 	"/>
	<g>
		<path fill="#FFD113" d="M221.837891,347.623993c-12.009796,12.014709-31.666,12.014709-43.681198,0L52.375999,221.842804
			c-12.015198-12.014694-12.015198-31.670898,0-43.681198L178.156693,52.375999
			c12.015198-12.009789,31.671402-12.009789,43.681198,0l125.786102,125.785606c12.014709,12.0103,12.014709,31.666504,0,43.681198
			L221.837891,347.623993z"/>
	</g>
	<polygon points="191.076691,175.934601 164.341797,216.222702 164.341797,285.170898 131.157196,285.170898 131.157196,216.222702 
		157.887192,175.934601 157.887192,109.334511 191.076691,109.334511 	"/>
	<polygon points="208.963898,175.934601 235.698196,216.222702 235.698196,285.170898 268.882782,285.170898 268.882782,216.222702 
		242.15329,175.934601 242.15329,109.334511 208.963898,109.334511 	"/>
</g>
</svg>
