<svg class="svgOrigin" xmlns="http://www.w3.org/2000/svg" width="400" height="400" x="0px" y="0px" viewBox="0 0 400 400" enable-background="new 0 0 400 400">
<g>
	
		<rect x="60.464493" y="60.464497" transform="matrix(0.707107 -0.707107 0.707107 0.707107 -82.842712 199.999985)" width="279.071014" height="279.071014"/>
	<polygon fill="none" stroke="#FFD113" stroke-width="3.8609" points="9.94141,200 200,9.94141 390.05368,200 200,390.058594 
		9.94141,200 	"/>
	<g>
		<path fill="#FFD113" d="M52.375999,221.837906c-12.015198-12.014694-12.015198-31.670898,0-43.681198L178.156693,52.371109
			c12.015198-12.0103,31.671402-12.0103,43.681198,0l125.786102,125.785599c12.014709,12.0103,12.014709,31.666504,0,43.681198
			L221.837891,347.623993c-12.009796,12.009796-31.666,12.009796-43.681198,0L52.375999,221.837906z"/>
	</g>
	<path d="M273.995087,148.39061l-11.77829-39.825699l-5.444305,5.570396
		c-16.278397-10.793503-35.824295-17.122597-56.77739-17.122597c-36.221207,0.009796-68.133804,18.73629-86.447708,47.024399
		l17.278305,11.210495v-0.009796c14.714294-22.662598,40.152298-37.633812,69.169403-37.633812
		c15.40329,0.010307,29.746094,4.237808,42.067398,11.572807l-7.11821,7.279297L273.995087,148.39061z"/>
	<path d="M207.400391,289.891602l40.34761,9.837891l-2.076111-7.510803c17.509689-8.646393,32.807602-22.360291,43.344711-40.473587
		c18.198181-31.31929,18.047882-68.319794,2.794891-98.372498l-18.36911,9.300308l0.004913,0.004791
		c12.196289,24.115799,12.352509,53.630905-2.236389,78.715897c-7.751892,13.3125-18.616211,23.582993-31.149414,30.545914
		l-2.713806-9.808624L207.400391,289.891602z"/>
	<path d="M118.523895,161.240204l-28.770493,29.957108l7.540497,1.975601c-1.316803,19.480392,2.860901,39.599594,13.2369,57.802689
		c17.947197,31.465805,50.015602,49.914993,83.66259,51.820297l1.186508-20.560486l-0.009796,0.004791
		c-26.976105-1.563416-52.579605-16.252899-66.947205-41.4599c-7.621597-13.391602-11.049896-27.946304-10.773499-42.278305
		l9.8433,2.579102L118.523895,161.240204z"/>
</g>
</svg>
